<svg width="112" height="112" viewBox="0 0 112 112" fill="none" xmlns="http://www.w3.org/2000/svg">
<path d="M55.9915 0.199387C51.0743 0.199387 21.6855 0.208715 6.95482 7.04152C3.37633 8.67138 0.202087 11.5169 0.202087 15.4568C0.202087 15.5121 0.219522 15.5557 0.221349 15.6082C0.193886 28.7106 0.221349 41.3383 0.221349 53.2968C0.699293 53.9598 1.16654 54.8138 1.54346 55.4339C1.12448 56.2857 0.787115 56.7756 0.221349 57.6846C0.20115 70.9893 0.258046 84.3655 0.202087 97.6383C0.202087 103.085 6.29844 105.678 10.4283 106.897C17.3662 109.469 34.7706 111.549 53.5747 111.801V101.756C38.2705 101.838 23.5591 100.604 13.3474 97.6383C11.645 97.1037 10.5273 96.5602 9.9118 96.1979V59.7789C10.1402 59.4181 10.356 59.0482 10.5847 58.6891C15.3183 60.0207 21.5066 61.1206 29.0753 61.9113C36.7018 62.7081 45.1078 63.1207 53.5747 63.1906C53.5747 61.5686 53.5747 59.9466 53.5747 58.3245C45.2568 58.2509 37.0058 57.8539 29.5776 57.0782C21.9288 56.2796 15.7586 55.145 11.4282 53.8846C11.1056 52.7642 10.4737 51.9787 9.91179 51.1127V25.1182C22.0714 29.5447 41.9788 30.6896 55.9915 30.733C63.2582 30.733 89.5347 30.1453 102.076 25.1182V51.1839C101.579 51.9522 101.047 52.6857 100.702 53.6192H111.606C111.674 53.5156 111.709 53.4501 111.786 53.3353C111.791 39.8083 111.786 28.6541 111.786 15.509H111.781C111.781 15.4902 111.786 15.4715 111.786 15.4542C111.786 11.1254 107.893 8.25338 105.033 7.0388C89.2749 1.7059 72.0014 0.302546 55.9915 0.199816L55.9915 0.199387ZM55.9915 9.90357C70.8104 11.1127 86.6147 10.173 99.7681 15.4568C86.4153 20.1597 68.8807 20.9835 55.9915 21.0244C41.1739 19.8074 23.3428 20.3513 12.2196 15.4568C23.0108 10.9519 43.1078 9.94406 55.9915 9.90357Z" fill="white"/>
<path d="M55.8991 55.9105V70.4436V111.664H111.795V55.9294C92.3294 55.8919 72.5705 55.9107 55.8991 55.9107V55.9105ZM60.7419 60.7722H106.715V65.6009H60.7419V60.7722ZM60.7419 70.4436H106.947V106.817H60.7419V70.4436Z" fill="white"/>
<path d="M65.589 75.2863V77.7173H72.8485V75.2863H65.589ZM77.6723 75.2863V77.7173H87.3579V75.2863H77.6723ZM92.2054 75.2863V77.7173H101.891V75.2863H92.2054ZM65.589 82.5601V84.9721H72.8485V82.5601H65.589ZM77.6723 82.5601V84.9721H87.3579V82.5601H77.6723ZM92.2054 82.5601V84.9721H101.891V82.5601H92.2054ZM65.589 89.8147V92.2457H72.8485V89.8147H65.589ZM77.6723 89.8147V92.2457H87.3579V89.8147H77.6723ZM92.2054 89.8147V92.2457H101.891V89.8147H92.2054ZM65.589 97.0932V99.505H72.8485V97.0932H65.589ZM77.6723 97.0932V99.505H87.3579V97.0932H77.6723ZM92.2054 97.0932V99.505H101.891V97.0932H92.2054Z" fill="white"/>
</svg>
