<svg xmlns:dc="http://purl.org/dc/elements/1.1/" xmlns:cc="http://creativecommons.org/ns#" xmlns:rdf="http://www.w3.org/1999/02/22-rdf-syntax-ns#" xmlns:svg="http://www.w3.org/2000/svg" xmlns="http://www.w3.org/2000/svg" xmlns:sodipodi="http://sodipodi.sourceforge.net/DTD/sodipodi-0.dtd" xmlns:inkscape="http://www.inkscape.org/namespaces/inkscape" viewBox="0 0 26.458333 33.0729175" version="1.1" x="0px" y="0px"><title>Database Table</title><g transform="translate(0,-270.54165)"><path style="color:#000000;font-style:normal;font-variant:normal;font-weight:normal;font-stretch:normal;font-size:medium;line-height:normal;font-family:sans-serif;font-variant-ligatures:normal;font-variant-position:normal;font-variant-caps:normal;font-variant-numeric:normal;font-variant-alternates:normal;font-feature-settings:normal;text-indent:0;text-align:start;text-decoration:none;text-decoration-line:none;text-decoration-style:solid;text-decoration-color:#000000;letter-spacing:normal;word-spacing:normal;text-transform:none;writing-mode:lr-tb;direction:ltr;text-orientation:mixed;dominant-baseline:auto;baseline-shift:baseline;text-anchor:start;white-space:normal;shape-padding:0;clip-rule:nonzero;display:inline;overflow:visible;visibility:visible;opacity:1;isolation:auto;mix-blend-mode:normal;color-interpolation:sRGB;color-interpolation-filters:linearRGB;solid-color:#000000;solid-opacity:1;vector-effect:none;fill:#000000;fill-opacity:1;fill-rule:nonzero;stroke:none;stroke-width:1.05833316;stroke-linecap:round;stroke-linejoin:miter;stroke-miterlimit:4;stroke-dasharray:none;stroke-dashoffset:0;stroke-opacity:1;paint-order:normal;color-rendering:auto;image-rendering:auto;shape-rendering:auto;text-rendering:auto;enable-background:accumulate" d="m 13.227335,271.86444 c -1.049206,0 -7.3199865,0.002 -10.4631326,1.45994 -0.7635545,0.34777 -1.4408542,0.95493 -1.4408542,1.79559 0,0.0118 0.00372,0.0211 0.00411,0.0323 -0.00586,2.79571 0,5.49015 0,8.04177 0.1019805,0.14146 0.2016796,0.32367 0.2821037,0.45598 -0.089399,0.18176 -0.1613843,0.28629 -0.2821037,0.48026 -0.00431,2.83886 0.00783,5.69298 -0.00411,8.52505 0,1.16225 1.3008013,1.71544 2.1820111,1.97557 1.4803628,0.54887 5.1940009,0.99257 9.2063017,1.04643 v -2.1434 c -3.2655186,0.0176 -6.4045399,-0.24581 -8.5834498,-0.8786 -0.363238,-0.11406 -0.6017318,-0.23004 -0.7330661,-0.30734 v -7.77083 c 0.04874,-0.077 0.09478,-0.15593 0.1435789,-0.23255 1.0100297,0.28412 2.3304522,0.51879 3.9454148,0.68751 1.6272779,0.17002 3.4209022,0.25806 5.2275202,0.27298 0,-0.3461 0,-0.6922 0,-1.0383 -1.774813,-0.0157 -3.5353678,-0.1004 -5.1203428,-0.2659 -1.6320677,-0.17041 -2.9486219,-0.41252 -3.8726118,-0.68145 -0.068834,-0.23907 -0.2036598,-0.40668 -0.3235612,-0.59146 v -5.54653 c 2.594539,0.94449 6.8422468,1.18881 9.8321898,1.19807 1.550519,0 7.157243,-0.12542 9.833201,-1.19807 v 5.56172 c -0.105992,0.16394 -0.219573,0.32047 -0.293228,0.51965 h 2.326602 c 0.01468,-0.0221 0.02216,-0.0361 0.03843,-0.0606 0.0012,-2.88631 0,-5.2663 0,-8.07112 h -0.001 c 2.9e-5,-0.004 0.001,-0.008 0.001,-0.0117 0,-0.92365 -0.830677,-1.53646 -1.440855,-1.79562 -3.362349,-1.1379 -7.04805,-1.43735 -10.464147,-1.45927 z m 0,2.07062 c 3.161968,0.25799 6.534193,0.0575 9.340781,1.18491 -2.849134,1.00348 -6.590564,1.17924 -9.340781,1.18797 -3.161688,-0.25967 -6.9663674,-0.1436 -9.3397719,-1.18797 2.3025719,-0.96121 6.5907409,-1.17627 9.3397719,-1.18491 z"/><path style="color:#000000;font-style:normal;font-variant:normal;font-weight:normal;font-stretch:normal;font-size:medium;line-height:normal;font-family:sans-serif;font-variant-ligatures:normal;font-variant-position:normal;font-variant-caps:normal;font-variant-numeric:normal;font-variant-alternates:normal;font-feature-settings:normal;text-indent:0;text-align:start;text-decoration:none;text-decoration-line:none;text-decoration-style:solid;text-decoration-color:#000000;letter-spacing:normal;word-spacing:normal;text-transform:none;writing-mode:lr-tb;direction:ltr;text-orientation:mixed;dominant-baseline:auto;baseline-shift:baseline;text-anchor:start;white-space:normal;shape-padding:0;clip-rule:nonzero;display:inline;overflow:visible;visibility:visible;opacity:1;isolation:auto;mix-blend-mode:normal;color-interpolation:sRGB;color-interpolation-filters:linearRGB;solid-color:#000000;solid-opacity:1;vector-effect:none;fill:#000000;fill-opacity:1;fill-rule:nonzero;stroke:none;stroke-width:0.52916658;stroke-linecap:round;stroke-linejoin:miter;stroke-miterlimit:4;stroke-dasharray:none;stroke-dashoffset:0;stroke-opacity:1;paint-order:normal;color-rendering:auto;image-rendering:auto;shape-rendering:auto;text-rendering:auto;enable-background:accumulate" d="m 13.207604,283.75174 v 3.10098 8.79538 h 11.926632 v -11.89233 c -4.153356,-0.008 -8.369398,-0.004 -11.926632,-0.004 z m 1.033322,1.03736 h 9.809529 v 1.0303 h -9.809529 z m 0,2.06362 h 9.858976 v 7.76105 h -9.858976 z"/><path style="color:#000000;font-style:normal;font-variant:normal;font-weight:normal;font-stretch:normal;font-size:medium;line-height:normal;font-family:sans-serif;font-variant-ligatures:normal;font-variant-position:normal;font-variant-caps:normal;font-variant-numeric:normal;font-variant-alternates:normal;font-feature-settings:normal;text-indent:0;text-align:start;text-decoration:none;text-decoration-line:none;text-decoration-style:solid;text-decoration-color:#000000;letter-spacing:normal;word-spacing:normal;text-transform:none;writing-mode:lr-tb;direction:ltr;text-orientation:mixed;dominant-baseline:auto;baseline-shift:baseline;text-anchor:start;white-space:normal;shape-padding:0;clip-rule:nonzero;display:inline;overflow:visible;visibility:visible;opacity:1;isolation:auto;mix-blend-mode:normal;color-interpolation:sRGB;color-interpolation-filters:linearRGB;solid-color:#000000;solid-opacity:1;vector-effect:none;fill:#000000;fill-opacity:1;fill-rule:nonzero;stroke:none;stroke-width:0.26458326px;stroke-linecap:butt;stroke-linejoin:miter;stroke-miterlimit:4;stroke-dasharray:none;stroke-dashoffset:0;stroke-opacity:1;color-rendering:auto;image-rendering:auto;shape-rendering:auto;text-rendering:auto;enable-background:accumulate" d="m 15.275182,287.88603 v 0.51869 h 1.548977 v -0.51869 z m 2.578266,0 v 0.51869 h 2.066651 v -0.51869 z m 3.100984,0 v 0.51869 h 2.066651 v -0.51869 z m -5.67925,1.55202 v 0.51464 h 1.548977 v -0.51464 z m 2.578266,0 v 0.51464 h 2.066651 v -0.51464 z m 3.100984,0 v 0.51464 h 2.066651 v -0.51464 z m -5.67925,1.54795 v 0.51869 h 1.548977 V 290.986 Z m 2.578266,0 v 0.51869 h 2.066651 V 290.986 Z m 3.100984,0 v 0.51869 h 2.066651 V 290.986 Z m -5.67925,1.55304 v 0.51462 h 1.548977 v -0.51462 z m 2.578266,0 v 0.51462 h 2.066651 v -0.51462 z m 3.100984,0 v 0.51462 h 2.066651 v -0.51462 z"/></g><text x="0" y="41.458334" fill="#000000" font-size="5px" font-weight="bold" font-family="'Helvetica Neue', Helvetica, Arial-Unicode, Arial, Sans-serif">Created by Sérgio Filipe Cardoso Pires</text><text x="0" y="46.458334" fill="#000000" font-size="5px" font-weight="bold" font-family="'Helvetica Neue', Helvetica, Arial-Unicode, Arial, Sans-serif">from the Noun Project</text></svg>