<svg width="88" height="64" viewBox="0 0 88 64" fill="none" xmlns="http://www.w3.org/2000/svg">
<path d="M10.373 12.477C12.0757 12.477 13.456 11.0967 13.456 9.394C13.456 7.69131 12.0757 6.311 10.373 6.311C8.6703 6.311 7.28999 7.69131 7.28999 9.394C7.28999 11.0967 8.6703 12.477 10.373 12.477Z" fill="white"/>
<path d="M18.737 12.477C20.4397 12.477 21.82 11.0967 21.82 9.394C21.82 7.69131 20.4397 6.311 18.737 6.311C17.0343 6.311 15.654 7.69131 15.654 9.394C15.654 11.0967 17.0343 12.477 18.737 12.477Z" fill="white"/>
<path d="M27.102 12.477C28.8047 12.477 30.185 11.0967 30.185 9.394C30.185 7.69131 28.8047 6.311 27.102 6.311C25.3993 6.311 24.019 7.69131 24.019 9.394C24.019 11.0967 25.3993 12.477 27.102 12.477Z" fill="white"/>
<path d="M79.209 7.894H65.419V10.894H79.209V7.894Z" fill="white"/>
<path d="M30.729 46.576L26.923 50.382L32.74 56.199L36.546 52.392C37.6 52.985 38.717 53.446 39.887 53.772V59.159H48.113V53.772C49.283 53.447 50.401 52.985 51.454 52.392L55.26 56.199L61.077 50.382L57.271 46.576C57.864 45.522 58.325 44.405 58.651 43.235H64.037V35.009H58.651C58.325 33.839 57.864 32.722 57.271 31.668L61.077 27.863L55.26 22.046L51.454 25.852C50.4 25.259 49.283 24.798 48.113 24.472V19.086H39.887V24.472C38.717 24.798 37.599 25.259 36.546 25.852L32.74 22.046L26.923 27.863L30.729 31.668C30.136 32.722 29.675 33.839 29.35 35.009H23.963V43.235H29.35C29.675 44.405 30.136 45.522 30.729 46.576ZM26.963 38.008H31.775L32.009 36.792C32.323 35.163 32.949 33.646 33.87 32.284L34.563 31.259L31.165 27.862L32.739 26.287L36.137 29.685L37.162 28.992C38.523 28.072 40.04 27.445 41.67 27.13L42.885 26.895V22.084H45.111V26.895L46.326 27.13C47.956 27.445 49.472 28.071 50.834 28.992L51.859 29.685L55.257 26.287L56.831 27.862L53.433 31.259L54.126 32.284C55.046 33.646 55.673 35.163 55.988 36.792L56.223 38.007H61.034V40.233H56.223L55.988 41.448C55.673 43.078 55.047 44.594 54.126 45.956L53.433 46.981L56.831 50.379L55.256 51.953L51.858 48.554L50.832 49.248C49.471 50.169 47.955 50.795 46.326 51.109L45.11 51.343V56.156H42.884V51.343L41.668 51.109C40.039 50.796 38.522 50.169 37.162 49.248L36.136 48.554L32.738 51.953L31.163 50.379L34.561 46.981L33.868 45.956C32.947 44.595 32.321 43.078 32.007 41.449L31.773 40.233H26.961V38.008H26.963Z" fill="white"/>
<path d="M44 46.093C47.844 46.093 50.972 42.966 50.972 39.122C50.972 35.278 47.845 32.15 44 32.15C40.155 32.15 37.028 35.277 37.028 39.122C37.028 42.965 40.156 46.093 44 46.093ZM44 35.15C46.19 35.15 47.972 36.932 47.972 39.122C47.972 41.312 46.19 43.093 44 43.093C41.81 43.093 40.028 41.312 40.028 39.122C40.028 36.932 41.81 35.15 44 35.15Z" fill="white"/>
<path d="M81.979 0.208008H6.021C2.701 0.208008 0 2.90901 0 6.22901V25.403V32.149V33.649V44.592V46.092V51.34V52.839V57.772C0 61.092 2.701 63.793 6.021 63.793H81.978C85.298 63.793 87.999 61.092 87.999 57.772L87.988 52.839H88V46.093V44.593V33.65V32.15V26.901V25.403V6.22901C88 2.90901 85.299 0.208008 81.979 0.208008ZM3 35.442C3.964 35.834 4.754 36.598 5.17 37.602C5.576 38.581 5.576 39.661 5.17 40.641C4.764 41.621 4 42.385 3.021 42.791C3.014 42.793 3.007 42.796 3 42.799V35.442ZM3 45.925C3.397 45.837 3.789 45.72 4.169 45.562C5.889 44.85 7.229 43.51 7.941 41.79C8.654 40.069 8.654 38.174 7.941 36.454C7.055 34.315 5.195 32.814 3 32.331V27.003C3.316 27.042 3.632 27.083 3.941 27.146L5.154 27.394L6.992 22.955L9.049 23.807L7.209 28.247L8.242 28.93C9.615 29.836 10.774 30.997 11.688 32.382L12.37 33.415L16.814 31.575L17.666 33.632L13.221 35.473L13.47 36.687C13.803 38.311 13.805 39.952 13.475 41.563L13.227 42.776L17.667 44.615L16.815 46.671L12.376 44.833L11.694 45.865C10.788 47.236 9.626 48.395 8.24 49.31L7.206 49.993L9.049 54.437L6.992 55.29L5.151 50.844L3.938 51.09C3.629 51.154 3.314 51.194 3 51.234V45.925ZM85 42.8C84.036 42.408 83.246 41.644 82.831 40.641C81.993 38.618 82.957 36.29 84.979 35.452C84.986 35.449 84.993 35.446 85 35.444V42.8ZM85 32.318C84.604 32.405 84.212 32.523 83.832 32.68C82.112 33.393 80.772 34.733 80.06 36.453C79.347 38.174 79.347 40.069 80.06 41.788C80.945 43.926 82.805 45.428 85.001 45.91V51.237C84.685 51.198 84.369 51.158 84.059 51.095L82.847 50.848L81.009 55.287L78.953 54.435L80.792 49.994L79.759 49.312C78.387 48.407 77.228 47.245 76.314 45.86L75.631 44.825L71.187 46.668L70.334 44.612L74.778 42.772L74.53 41.56C74.198 39.933 74.197 38.292 74.526 36.682L74.774 35.47L70.334 33.631L71.186 31.574L75.627 33.414L76.309 32.38C77.216 31.006 78.377 29.848 79.759 28.937L80.794 28.255L78.953 23.808L81.01 22.956L82.853 27.402L84.066 27.153C84.375 27.09 84.688 27.049 85.002 27.01V32.318H85ZM85 23.979C84.898 23.989 84.796 24 84.694 24.013L82.631 19.036L75.032 22.183L77.092 27.16C76.137 27.908 75.281 28.762 74.534 29.713L69.56 27.653L66.412 35.253L71.385 37.314C71.241 38.514 71.242 39.723 71.389 40.928L66.412 42.989L69.561 50.59L74.536 48.527C75.285 49.484 76.139 50.34 77.09 51.087L75.031 56.06L82.63 59.208L84.69 54.233C84.793 54.245 84.895 54.256 84.998 54.266V57.772C84.998 59.438 83.643 60.793 81.977 60.793H6.021C4.355 60.793 3 59.438 3 57.772V54.263C3.103 54.253 3.205 54.242 3.307 54.229L5.368 59.208L12.969 56.059L10.906 51.083C11.863 50.334 12.719 49.48 13.466 48.53L18.439 50.59L21.585 42.99L16.614 40.93C16.758 39.729 16.757 38.52 16.61 37.315L21.586 35.254L18.438 27.653L13.462 29.714C12.713 28.757 11.859 27.902 10.908 27.155L12.968 22.183L5.367 19.035L3.307 24.009C3.206 23.997 3.103 23.986 3 23.976V17.45H85V23.979ZM85 14.45H3V6.22901C3 4.56301 4.355 3.20801 6.021 3.20801H81.978C83.644 3.20801 84.999 4.56301 84.999 6.22901V14.45H85Z" fill="white"/>
</svg>
