<svg width="90" height="61" viewBox="0 0 90 61" fill="none" xmlns="http://www.w3.org/2000/svg">
<path d="M73.7 60.2C73.6 60.2 73.4 60.2 73.3 60.2H18.2C8.3 60.2 0.300003 52.2 0.300003 42.3C0.300003 34 6 26.8 14 25C13.8 24 13.8 22.9 13.8 21.7C13.8 9.8 23.5 0 35.5 0C43.3 0 50.5 4.3 54.3 11C55.6 10.7 56.8 10.6 58 10.6C67.3 10.6 74.9 18.2 74.9 27.5C74.9 27.5 74.9 27.5 74.9 27.6C83.3 28.4 89.8 35.4 89.8 44C89.8 48.5 88 52.7 84.8 55.8C81.8 58.6 77.8 60.2 73.7 60.2ZM35.4 4C25.7 4 17.7 11.9 17.7 21.7C17.7 23.4 17.9 24.8 18.3 26C18.5 26.6 18.4 27.2 18.1 27.7C17.8 28.2 17.2 28.5 16.6 28.6C9.5 29.4 4.2 35.3 4.2 42.4C4.2 50 10.4 56.3 18.1 56.3H73.3C76.6 56.4 79.7 55.2 82 52.9C84.4 50.5 85.7 47.4 85.7 44C85.7 37.1 80.1 31.6 73.3 31.6H72.6C72 31.6 71.5 31.3 71.1 30.9C70.7 30.5 70.5 29.9 70.6 29.3C70.7 28.7 70.8 28.1 70.8 27.6C70.8 20.5 65 14.7 57.9 14.7C56.5 14.7 55.2 14.9 53.7 15.4C52.7 15.7 51.7 15.2 51.3 14.3C48.5 8 42.2 4 35.4 4Z" fill="white"/>
</svg>
