<svg width="141" height="107" viewBox="0 0 141 107" fill="none" xmlns="http://www.w3.org/2000/svg">
<path d="M136.747 7.54675C136.747 11.3251 136.747 15.1035 136.747 18.882C136.747 27.6191 136.747 36.3563 136.747 45.0936C136.747 54.8926 136.747 64.6918 136.747 74.491C136.747 81.4551 136.747 88.4191 136.747 95.3834C136.747 96.5845 136.747 97.7856 136.747 98.9868C136.747 99.2031 136.732 99.4174 136.712 99.6325C136.755 99.1821 136.649 99.8171 136.637 99.8639C136.589 100.057 136.52 100.244 136.451 100.43C136.603 100.02 136.348 100.592 136.326 100.633C136.286 100.707 135.845 101.323 136.102 101.003C135.98 101.155 135.842 101.292 135.705 101.429C135.676 101.459 135.191 101.857 135.538 101.597C135.382 101.714 135.214 101.814 135.046 101.913C135.01 101.934 134.436 102.206 134.843 102.038C134.659 102.114 134.468 102.169 134.277 102.224C134.235 102.236 133.593 102.359 134.046 102.299C133.841 102.326 133.63 102.334 133.423 102.334C133.196 102.334 132.97 102.334 132.743 102.334C128.484 102.334 124.225 102.334 119.966 102.334C111.885 102.334 103.804 102.334 95.7236 102.334C85.8784 102.334 76.0334 102.334 66.1882 102.334C56.6362 102.334 47.0843 102.334 37.5324 102.334C30.3311 102.334 23.1299 102.334 15.9286 102.334C13.8525 102.334 11.7763 102.334 9.69999 102.334C8.78215 102.334 7.84349 102.385 6.92792 102.299C7.37831 102.341 6.74347 102.236 6.69653 102.224C6.50364 102.176 6.31693 102.107 6.13083 102.038C6.53986 102.189 5.96797 101.935 5.92752 101.913C5.75636 101.82 5.59591 101.708 5.43607 101.597C5.78866 101.842 5.30174 101.46 5.26839 101.429C5.12621 101.297 4.99867 101.15 4.87173 101.003C5.15247 101.327 4.77226 100.84 4.74706 100.801C4.70253 100.731 4.36278 100.043 4.52231 100.43C4.44655 100.246 4.3913 100.055 4.33636 99.8639C4.32429 99.8221 4.20143 99.1797 4.26135 99.6325C4.23418 99.4275 4.22648 99.2171 4.22648 99.0105C4.22648 98.9833 4.22648 98.9564 4.22648 98.9294C4.22648 98.4987 4.22648 98.0677 4.22648 97.637C4.22648 95.4169 4.22648 93.1966 4.22648 90.9765C4.22648 82.8075 4.22648 74.6383 4.22648 66.4692C4.22648 56.5756 4.22648 46.6821 4.22648 36.7886C4.22648 29.0677 4.22648 21.3466 4.22648 13.6257C4.22648 11.7977 4.22648 9.96971 4.22648 8.14174C4.22648 7.97888 4.22648 7.81602 4.22648 7.65331C4.22648 7.62191 4.22648 7.59037 4.22648 7.55897C4.22648 7.55505 4.22648 7.55098 4.22648 7.54705C4.22648 7.33952 4.24188 7.13439 4.26135 6.92792C4.22075 7.35717 4.367 6.59043 4.3916 6.505C4.40413 6.46183 4.64774 5.87545 4.46586 6.27452C4.54707 6.09642 4.64714 5.92782 4.74691 5.75968C4.76864 5.72315 5.14341 5.21994 4.87158 5.55697C4.99353 5.40589 5.13119 5.26824 5.26823 5.13119C5.29752 5.10191 5.78292 4.70359 5.43592 4.96365C5.59199 4.84667 5.75998 4.74675 5.92737 4.64744C5.96329 4.62616 6.53775 4.35463 6.13068 4.52232C6.37625 4.42104 6.63359 4.35206 6.89079 4.28806C7.50977 4.13411 6.48794 4.30301 7.13213 4.24218C7.24262 4.23176 7.43642 4.22648 7.5472 4.22648C7.55098 4.22648 7.5549 4.22648 7.55882 4.22648C7.58675 4.22648 7.61467 4.22648 7.64259 4.22648C11.0474 4.22648 14.4522 4.22648 17.8568 4.22648C25.4331 4.22648 33.0095 4.22648 40.5857 4.22648C50.276 4.22648 59.9663 4.22648 69.6567 4.22648C79.4036 4.22648 89.1505 4.22648 98.8974 4.22648C106.643 4.22648 114.39 4.22648 122.136 4.22648C125.823 4.22648 129.511 4.22648 133.199 4.22648C133.482 4.22648 133.762 4.23463 134.046 4.26135C133.616 4.22075 134.383 4.367 134.469 4.3916C134.595 4.43054 134.72 4.47417 134.843 4.52232C134.64 4.43779 134.651 4.44821 134.874 4.55356C135.107 4.67008 135.324 4.81528 135.538 4.96365C135.367 4.83007 135.376 4.84184 135.563 4.99897C135.71 5.1262 135.843 5.26854 135.975 5.41041C136.132 5.59803 136.144 5.60648 136.01 5.43608C136.086 5.54143 136.158 5.64935 136.227 5.75983C136.271 5.82896 136.611 6.51798 136.452 6.13098C136.553 6.37655 136.622 6.6339 136.686 6.89109C136.731 7.14179 136.739 7.15402 136.713 6.92807C136.739 7.13274 136.743 7.34027 136.747 7.54675C136.769 8.69823 137.692 9.65984 138.86 9.65984C139.996 9.65984 140.995 8.69869 140.973 7.54675C140.896 3.44403 137.589 0 133.426 0C133.223 0 133.019 0 132.816 0C131.333 0 129.85 0 128.367 0C121.998 0 115.628 0 109.258 0C100.065 0 90.8715 0 81.678 0C71.7183 0 61.7582 0 51.7985 0C43.1297 0 34.4609 0 25.7921 0C20.4718 0 15.1515 0 9.83115 0C9.06968 0 8.30822 0 7.54675 0C3.44253 0 0 3.44298 0 7.54705C0 7.82417 0 8.10113 0 8.37825C0 13.7912 0 19.2044 0 24.6173C0 33.9954 0 43.3736 0 52.7518C0 62.1982 0 71.6445 0 81.0909C0 86.7085 0 92.3262 0 97.9437C0 98.2931 0 98.6428 0 98.9922C0 102.45 2.41873 105.515 5.76708 106.347C6.97501 106.648 8.29282 106.56 9.53034 106.56C14.6962 106.56 19.862 106.56 25.0277 106.56C33.6141 106.56 42.2005 106.56 50.7869 106.56C60.7362 106.56 70.6857 106.56 80.6352 106.56C89.8901 106.56 99.1453 106.56 108.4 106.56C114.903 106.56 121.407 106.56 127.91 106.56C129.487 106.56 131.063 106.56 132.64 106.56C132.897 106.56 133.154 106.56 133.411 106.56C136.866 106.56 139.929 104.137 140.761 100.793C141.111 99.3822 140.973 97.7799 140.973 96.337C140.973 93.6893 140.973 91.0417 140.973 88.3942C140.973 79.7648 140.973 71.1352 140.973 62.5058C140.973 52.678 140.973 42.8501 140.973 33.0225C140.973 25.8934 140.973 18.7642 140.973 11.635C140.973 10.2722 140.973 8.90939 140.973 7.5466C140.973 6.39466 140.012 5.43351 138.86 5.43351C137.708 5.43351 136.747 6.39481 136.747 7.54675Z" fill="white"/>
<path d="M136.747 7.54675C136.747 11.3704 136.747 15.1942 136.747 19.0178C137.452 18.3134 138.156 17.6091 138.86 16.9047C136.189 16.9047 133.518 16.9047 130.847 16.9047C123.996 16.9047 117.145 16.9047 110.294 16.9047C101.006 16.9047 91.7187 16.9047 82.4312 16.9047C72.4506 16.9047 62.47 16.9047 52.4895 16.9047C43.5594 16.9047 34.6292 16.9047 25.6991 16.9047C19.5628 16.9047 13.4266 16.9047 7.29046 16.9047C5.56467 16.9047 3.83873 16.9047 2.11294 16.9047C2.81735 17.6091 3.52162 18.3134 4.22603 19.0178C4.22603 15.353 4.22603 11.6881 4.22603 8.02325C4.22603 7.86794 4.22603 7.71248 4.22603 7.55716C4.22603 7.46449 4.31855 6.66423 4.24625 7.08776C4.28006 6.89003 4.33561 6.69698 4.39115 6.50469C4.43009 6.37836 4.47371 6.25369 4.52186 6.13053C4.43734 6.33308 4.44775 6.32252 4.55311 6.09898C4.6405 5.9242 4.74645 5.75953 4.85196 5.59561C5.18598 5.07655 4.59507 5.87514 4.99836 5.41011C5.1256 5.2634 5.26793 5.13073 5.40981 4.99866C5.86065 4.57876 5.08892 5.20439 5.59531 4.85226C6.25127 4.39613 6.73834 4.26422 7.33801 4.2301C7.59414 4.21561 7.85436 4.22618 8.11064 4.22618C12.2478 4.22618 16.3851 4.22618 20.5222 4.22618C28.5326 4.22618 36.543 4.22618 44.5533 4.22618C54.3795 4.22618 64.2055 4.22618 74.0317 4.22618C83.6159 4.22618 93.2002 4.22618 102.785 4.22618C110.07 4.22618 117.355 4.22618 124.64 4.22618C127.568 4.22618 130.497 4.22618 133.425 4.22618C133.604 4.22618 133.663 4.23177 133.841 4.24188C134.099 4.26603 134.113 4.26754 133.885 4.24656C134.083 4.28036 134.276 4.33591 134.468 4.39145C134.594 4.4304 134.719 4.47401 134.842 4.52216C134.433 4.37078 135.005 4.6251 135.046 4.64729C135.159 4.71174 135.269 4.77996 135.377 4.85241C135.896 5.18643 135.098 4.59552 135.563 4.99882C135.659 5.0853 135.752 5.17511 135.842 5.26839C135.871 5.29767 136.27 5.78308 136.01 5.43608C136.205 5.69689 136.362 5.98397 136.507 6.27452C136.428 6.0691 136.432 6.08298 136.52 6.31633C136.589 6.50349 136.637 6.69744 136.685 6.89094C136.73 7.14164 136.739 7.15386 136.712 6.92792C136.739 7.13273 136.743 7.34027 136.747 7.54675C136.769 8.69823 137.692 9.65984 138.86 9.65984C139.996 9.65984 140.995 8.69869 140.973 7.54675C140.896 3.44403 137.589 0 133.426 0C133.223 0 133.019 0 132.816 0C131.333 0 129.85 0 128.367 0C121.998 0 115.628 0 109.258 0C100.065 0 90.8715 0 81.678 0C71.7183 0 61.7582 0 51.7985 0C43.1297 0 34.4609 0 25.7921 0C20.4718 0 15.1515 0 9.83115 0C9.06968 0 8.30822 0 7.54675 0C3.44071 0 0 3.44449 0 7.54947C0 9.15964 0 10.7698 0 12.38C0 14.5927 0 16.8053 0 19.0178C0 20.1697 0.961154 21.1309 2.11309 21.1309C4.78419 21.1309 7.45528 21.1309 10.1264 21.1309C16.9775 21.1309 23.8284 21.1309 30.6795 21.1309C39.967 21.1309 49.2545 21.1309 58.5421 21.1309C68.5227 21.1309 78.5033 21.1309 88.4837 21.1309C97.4139 21.1309 106.344 21.1309 115.274 21.1309C121.41 21.1309 127.547 21.1309 133.683 21.1309C135.409 21.1309 137.134 21.1309 138.86 21.1309C140.012 21.1309 140.973 20.1697 140.973 19.0178C140.973 15.1942 140.973 11.3704 140.973 7.54675C140.973 6.39481 140.012 5.43366 138.86 5.43366C137.708 5.43366 136.747 6.39481 136.747 7.54675Z" fill="white"/>
<path d="M11.0732 10.5654C11.1408 10.2089 11.1469 10.1404 11.0913 10.3599C11.1416 10.151 11.2453 9.97303 11.4019 9.82617C11.2447 9.97755 11.2979 9.94012 11.5619 9.71372C11.6594 9.67493 11.7568 9.63599 11.8543 9.5972C11.6348 9.65289 11.7033 9.64685 12.0599 9.57909C12.4164 9.6467 12.4849 9.65274 12.2654 9.5972C12.4743 9.64746 12.6523 9.75115 12.7991 9.90782C12.6478 9.75055 12.6852 9.80383 12.9116 10.0678C12.9505 10.1653 12.9895 10.2627 13.0283 10.3602C12.9726 10.1407 12.9786 10.2092 13.0464 10.5657C12.9788 10.9223 12.9727 10.9908 13.0283 10.7713C12.978 10.9802 12.8743 11.1582 12.7176 11.305C12.8749 11.1536 12.8216 11.1911 12.5576 11.4175C12.4601 11.4563 12.3628 11.4952 12.2653 11.534C12.4847 11.4783 12.4162 11.4843 12.0597 11.5521C11.7032 11.4845 11.6347 11.4785 11.8541 11.534C11.6452 11.4837 11.4673 11.38 11.3204 11.2234C11.4718 11.3806 11.4344 11.3274 11.208 11.0634C11.169 10.9659 11.1301 10.8685 11.0913 10.771C11.147 10.9905 11.141 10.922 11.0732 10.5654C11.1351 11.7153 11.9876 12.6785 13.1863 12.6785C14.2913 12.6785 15.3614 11.7166 15.2994 10.5654C15.2008 8.73581 13.8893 7.42419 12.0597 7.32578C10.234 7.22752 8.9106 8.88328 8.82004 10.5654C8.72178 12.3912 10.3775 13.7146 12.0597 13.8051C13.8854 13.9034 15.2088 12.2476 15.2994 10.5654C15.3614 9.41426 14.2913 8.45236 13.1863 8.45236C11.9877 8.45236 11.1352 9.41562 11.0732 10.5654Z" fill="white"/>
<path d="M22.1669 10.5654C22.2345 10.2089 22.2406 10.1404 22.185 10.3599C22.2353 10.151 22.339 9.97303 22.4957 9.82617C22.3384 9.97756 22.3917 9.94012 22.6557 9.71372C22.7532 9.67493 22.8505 9.63599 22.9479 9.5972C22.7284 9.65289 22.7969 9.64686 23.1536 9.57909C23.5101 9.6467 23.5786 9.65274 23.3592 9.5972C23.5681 9.64746 23.746 9.75115 23.8929 9.90782C23.7415 9.75055 23.7789 9.80383 24.0053 10.0678C24.0441 10.1653 24.0831 10.2627 24.1218 10.36C24.0661 10.1406 24.0722 10.2091 24.14 10.5656C24.0723 10.9221 24.0663 10.9906 24.1218 10.7713C24.0716 10.9802 23.9679 11.1582 23.8112 11.305C23.9685 11.1536 23.9152 11.1911 23.6512 11.4175C23.5537 11.4564 23.4564 11.4954 23.359 11.5341C23.5785 11.4785 23.51 11.4845 23.1534 11.5523C22.7969 11.4846 22.7284 11.4786 22.9477 11.5341C22.7388 11.4839 22.5609 11.3802 22.414 11.2235C22.5654 11.3808 22.528 11.3275 22.3016 11.0635C22.2626 10.966 22.2237 10.8687 22.1849 10.7713C22.2407 10.9905 22.2347 10.922 22.1669 10.5654C22.2288 11.7153 23.0813 12.6785 24.28 12.6785C25.385 12.6785 26.4551 11.7166 26.3931 10.5654C26.2945 8.73581 24.9831 7.42434 23.1534 7.32578C21.3277 7.22752 20.0042 8.88312 19.9136 10.5654C19.8154 12.3912 21.4711 13.7147 23.1534 13.8053C24.9792 13.9035 26.3025 12.2476 26.3931 10.5654C26.4551 9.41427 25.385 8.45236 24.28 8.45236C23.0814 8.45236 22.229 9.41562 22.1669 10.5654Z" fill="white"/>
<path d="M33.2606 10.5654C33.3283 10.2089 33.3343 10.1404 33.2788 10.3599C33.329 10.151 33.4327 9.97303 33.5894 9.82617C33.4321 9.97756 33.4854 9.94012 33.7494 9.71372C33.8469 9.67493 33.9442 9.63599 34.0416 9.5972C33.8221 9.65289 33.8907 9.64686 34.2473 9.57909C34.6038 9.6467 34.6723 9.65274 34.4529 9.5972C34.6618 9.64746 34.8397 9.75115 34.9866 9.90782C34.8352 9.75055 34.8726 9.80383 35.099 10.0678C35.1378 10.1653 35.1768 10.2627 35.2156 10.36C35.1599 10.1406 35.1659 10.2091 35.2337 10.5656C35.1661 10.9221 35.16 10.9906 35.2156 10.7713C35.1653 10.9802 35.0616 11.1582 34.9049 11.305C35.0622 11.1536 35.0089 11.1911 34.7449 11.4175C34.6474 11.4564 34.5501 11.4954 34.4527 11.5341C34.6722 11.4785 34.6037 11.4845 34.2472 11.5523C33.8907 11.4846 33.8221 11.4786 34.0414 11.5341C33.8325 11.4839 33.6546 11.3802 33.5077 11.2235C33.6591 11.3808 33.6217 11.3275 33.3953 11.0635C33.3563 10.966 33.3174 10.8687 33.2786 10.7713C33.3345 10.9905 33.3284 10.922 33.2606 10.5654C33.3225 11.7153 34.175 12.6785 35.3737 12.6785C36.4787 12.6785 37.5489 11.7166 37.4868 10.5654C37.3883 8.73581 36.0768 7.42434 34.2472 7.32578C32.4215 7.22752 31.0979 8.88312 31.0073 10.5654C30.9091 12.3912 32.5648 13.7147 34.2472 13.8053C36.0729 13.9035 37.3963 12.2476 37.4868 10.5654C37.5489 9.41427 36.4787 8.45236 35.3737 8.45236C34.1752 8.45236 33.3227 9.41562 33.2606 10.5654Z" fill="white"/>
<path d="M52.078 80.6065C46.7785 75.307 41.479 70.0074 36.1796 64.7079C34.7119 63.2403 33.2442 61.7726 31.7765 60.3049C31.7765 61.301 31.7765 62.2971 31.7765 63.2932C37.076 57.9938 42.3756 52.6943 47.6749 47.3948C49.1426 45.9271 50.6103 44.4594 52.078 42.9917C54.0066 41.0631 51.0183 38.0747 49.0896 40.0034C43.7902 45.3028 38.4905 50.6023 33.1912 55.9018C31.7235 57.3695 30.2558 58.8372 28.7881 60.3049C27.974 61.119 27.974 62.4791 28.7881 63.2932C34.0876 68.5927 39.3871 73.8923 44.6866 79.1918C46.1543 80.6595 47.6219 82.1272 49.0896 83.5949C51.0184 85.5235 54.0068 82.5352 52.078 80.6065Z" fill="white"/>
<path d="M91.8836 83.5949C97.1831 78.2954 102.483 72.9958 107.782 67.6963C109.25 66.2286 110.717 64.7609 112.185 63.2932C112.999 62.4791 112.999 61.119 112.185 60.3049C106.886 55.0054 101.586 49.7059 96.2867 44.4064C94.819 42.9387 93.3513 41.4711 91.8836 40.0035C89.955 38.0749 86.9666 41.0632 88.8953 42.9919C94.1948 48.2914 99.4942 53.591 104.794 58.8903C106.261 60.3582 107.729 61.8257 109.197 63.2934C109.197 62.2972 109.197 61.3012 109.197 60.305C103.897 65.6045 98.5977 70.9041 93.2984 76.2036C91.8305 77.6713 90.363 79.139 88.8953 80.6067C86.9666 82.5352 89.955 85.5235 91.8836 83.5949Z" fill="white"/>
<path d="M79.2137 40.4311C76.3311 45.9772 73.4486 51.5235 70.5659 57.0696C66.6976 64.5123 62.8291 71.9551 58.9606 79.3978C58.6772 79.9433 58.3936 80.4889 58.1101 81.0343C57.5788 82.0564 57.8386 83.3223 58.8681 83.9254C59.8243 84.4856 61.2284 84.1884 61.7591 83.1674C64.6418 77.6212 67.5244 72.0751 70.4071 66.529C74.2754 59.0862 78.1439 51.6435 82.0122 44.2007C82.2958 43.6552 82.5792 43.1097 82.8629 42.5643C83.3941 41.5423 83.1344 40.2762 82.1049 39.6733C81.1488 39.1128 79.7445 39.4099 79.2137 40.4311Z" fill="white"/>
</svg>
