<svg width="129" height="130" viewBox="0 0 129 130" fill="none" xmlns="http://www.w3.org/2000/svg">
<path d="M10 4.33C9.6916 4.162 9.34439 4.07818 8.9933 4.08696C8.64222 4.09573 8.29963 4.1968 8.00001 4.38L4.00001 6.87C3.74004 6.98521 3.50763 7.15453 3.31828 7.36666C3.12892 7.57879 2.98698 7.82887 2.90192 8.10019C2.81686 8.37152 2.79063 8.65787 2.82499 8.94014C2.85934 9.2224 2.95349 9.4941 3.10116 9.7371C3.24882 9.98011 3.44661 10.1888 3.68132 10.3493C3.91603 10.5099 4.18227 10.6185 4.46228 10.668C4.74229 10.7175 5.02964 10.7067 5.30515 10.6363C5.58066 10.566 5.838 10.4377 6.06001 10.26L7.00001 9.67V14.07H6.00001C5.46957 14.07 4.96086 14.2807 4.58579 14.6558C4.21072 15.0309 4.00001 15.5396 4.00001 16.07C4.00001 16.6004 4.21072 17.1091 4.58579 17.4842C4.96086 17.8593 5.46957 18.07 6.00001 18.07H12C12.5304 18.07 13.0391 17.8593 13.4142 17.4842C13.7893 17.1091 14 16.6004 14 16.07C14 15.5396 13.7893 15.0309 13.4142 14.6558C13.0391 14.2807 12.5304 14.07 12 14.07H11V6.07C11.0014 5.71758 10.9097 5.37105 10.734 5.06549C10.5584 4.75994 10.3052 4.50621 10 4.33Z" fill="white"/>
<path d="M15 24.06C15 23.5296 14.7893 23.0209 14.4142 22.6458C14.0391 22.2707 13.5304 22.06 13 22.06H5C4.46957 22.06 3.96086 22.2707 3.58579 22.6458C3.21071 23.0209 3 23.5296 3 24.06V34.06C3 34.5904 3.21071 35.0991 3.58579 35.4742C3.96086 35.8493 4.46957 36.06 5 36.06H13C13.5304 36.06 14.0391 35.8493 14.4142 35.4742C14.7893 35.0991 15 34.5904 15 34.06V24.06ZM11 32.06H7V26.06H11V32.06Z" fill="white"/>
<path d="M10 40.3C9.69159 40.132 9.34438 40.0482 8.9933 40.057C8.64221 40.0657 8.29963 40.1668 8 40.35L4 42.84C3.76914 42.9752 3.56776 43.1553 3.40777 43.3698C3.24778 43.5842 3.13244 43.8285 3.06857 44.0883C3.0047 44.3481 2.99361 44.6181 3.03594 44.8823C3.07827 45.1464 3.17317 45.3994 3.31503 45.6263C3.45688 45.8531 3.6428 46.0491 3.86178 46.2028C4.08076 46.3565 4.32835 46.4647 4.5899 46.521C4.85144 46.5773 5.12162 46.5806 5.38444 46.5306C5.64726 46.4806 5.89738 46.3784 6.12 46.23L7 45.65V50H6C5.46957 50 4.96086 50.2107 4.58578 50.5858C4.21071 50.9609 4 51.4696 4 52C4 52.5304 4.21071 53.0391 4.58578 53.4142C4.96086 53.7893 5.46957 54 6 54H12C12.5304 54 13.0391 53.7893 13.4142 53.4142C13.7893 53.0391 14 52.5304 14 52C14 51.4696 13.7893 50.9609 13.4142 50.5858C13.0391 50.2107 12.5304 50 12 50H11V42C10.9944 41.6544 10.8994 41.3161 10.7241 41.0182C10.5489 40.7202 10.2994 40.4728 10 40.3Z" fill="white"/>
<path d="M15 70V60C15 59.4696 14.7893 58.9609 14.4142 58.5858C14.0391 58.2107 13.5304 58 13 58H5C4.46957 58 3.96086 58.2107 3.58579 58.5858C3.21071 58.9609 3 59.4696 3 60V70C3 70.5304 3.21071 71.0391 3.58579 71.4142C3.96086 71.7893 4.46957 72 5 72H13C13.5304 72 14.0391 71.7893 14.4142 71.4142C14.7893 71.0391 15 70.5304 15 70ZM11 68H7V62H11V68Z" fill="white"/>
<path d="M26 4.33C25.6916 4.162 25.3444 4.07818 24.9933 4.08696C24.6422 4.09573 24.2996 4.1968 24 4.38L20 6.87C19.7691 7.00521 19.5678 7.18535 19.4078 7.39978C19.2478 7.6142 19.1324 7.85854 19.0686 8.11834C19.0047 8.37814 18.9936 8.64811 19.0359 8.91227C19.0783 9.17644 19.1732 9.42942 19.315 9.65625C19.4569 9.88308 19.6428 10.0791 19.8618 10.2328C20.0808 10.3865 20.3284 10.4947 20.5899 10.551C20.8514 10.6073 21.1216 10.6106 21.3844 10.5606C21.6473 10.5106 21.8974 10.4084 22.12 10.26L23 9.67V14.07H22C21.4696 14.07 20.9609 14.2807 20.5858 14.6558C20.2107 15.0309 20 15.5396 20 16.07C20 16.6004 20.2107 17.1091 20.5858 17.4842C20.9609 17.8593 21.4696 18.07 22 18.07H28C28.5304 18.07 29.0391 17.8593 29.4142 17.4842C29.7893 17.1091 30 16.6004 30 16.07C30 15.5396 29.7893 15.0309 29.4142 14.6558C29.0391 14.2807 28.5304 14.07 28 14.07H27V6.07C27.0014 5.71758 26.9096 5.37105 26.734 5.06549C26.5584 4.75994 26.3052 4.50621 26 4.33Z" fill="white"/>
<path d="M31 24.06C31 23.5296 30.7893 23.0209 30.4142 22.6458C30.0391 22.2707 29.5304 22.06 29 22.06H21C20.4696 22.06 19.9609 22.2707 19.5858 22.6458C19.2107 23.0209 19 23.5296 19 24.06V34.06C19 34.5904 19.2107 35.0991 19.5858 35.4742C19.9609 35.8493 20.4696 36.06 21 36.06H29C29.5304 36.06 30.0391 35.8493 30.4142 35.4742C30.7893 35.0991 31 34.5904 31 34.06V24.06ZM27 32.06H23V26.06H27V32.06Z" fill="white"/>
<path d="M26 40.3C25.6916 40.132 25.3444 40.0482 24.9933 40.057C24.6422 40.0657 24.2996 40.1668 24 40.35L20 42.84C19.7691 42.9752 19.5678 43.1553 19.4078 43.3698C19.2478 43.5842 19.1324 43.8285 19.0686 44.0883C19.0047 44.3481 18.9936 44.6181 19.0359 44.8823C19.0783 45.1464 19.1732 45.3994 19.315 45.6263C19.4569 45.8531 19.6428 46.0491 19.8618 46.2028C20.0808 46.3565 20.3284 46.4647 20.5899 46.521C20.8514 46.5773 21.1216 46.5806 21.3844 46.5306C21.6473 46.4806 21.8974 46.3784 22.12 46.23L23.06 45.64V50H22C21.4696 50 20.9609 50.2107 20.5858 50.5858C20.2107 50.9609 20 51.4696 20 52C20 52.5304 20.2107 53.0391 20.5858 53.4142C20.9609 53.7893 21.4696 54 22 54H28C28.5304 54 29.0391 53.7893 29.4142 53.4142C29.7893 53.0391 30 52.5304 30 52C30 51.4696 29.7893 50.9609 29.4142 50.5858C29.0391 50.2107 28.5304 50 28 50H27V42C26.9944 41.6544 26.8994 41.3161 26.7241 41.0182C26.5489 40.7202 26.2994 40.4728 26 40.3V40.3Z" fill="white"/>
<path d="M31 60C31 59.4696 30.7893 58.9609 30.4142 58.5858C30.0391 58.2107 29.5304 58 29 58H21C20.4696 58 19.9609 58.2107 19.5858 58.5858C19.2107 58.9609 19 59.4696 19 60V70C19 70.5304 19.2107 71.0391 19.5858 71.4142C19.9609 71.7893 20.4696 72 21 72H29C29.5304 72 30.0391 71.7893 30.4142 71.4142C30.7893 71.0391 31 70.5304 31 70V60ZM27 68H23V62H27V68Z" fill="white"/>
<path d="M42 4.33C41.6916 4.162 41.3444 4.07818 40.9933 4.08696C40.6422 4.09573 40.2996 4.1968 40 4.38L36 6.87C35.7691 7.00521 35.5678 7.18535 35.4078 7.39978C35.2478 7.6142 35.1324 7.85854 35.0686 8.11834C35.0047 8.37814 34.9936 8.64811 35.0359 8.91227C35.0783 9.17644 35.1732 9.42942 35.315 9.65625C35.4569 9.88308 35.6428 10.0791 35.8618 10.2328C36.0808 10.3865 36.3284 10.4947 36.5899 10.551C36.8514 10.6073 37.1216 10.6106 37.3844 10.5606C37.6473 10.5106 37.8974 10.4084 38.12 10.26L39 9.67V14.07H38C37.4696 14.07 36.9609 14.2807 36.5858 14.6558C36.2107 15.0309 36 15.5396 36 16.07C36 16.6004 36.2107 17.1091 36.5858 17.4842C36.9609 17.8593 37.4696 18.07 38 18.07H44C44.5304 18.07 45.0391 17.8593 45.4142 17.4842C45.7893 17.1091 46 16.6004 46 16.07C46 15.5396 45.7893 15.0309 45.4142 14.6558C45.0391 14.2807 44.5304 14.07 44 14.07H43V6.07C43.0014 5.71758 42.9096 5.37105 42.734 5.06549C42.5584 4.75994 42.3052 4.50621 42 4.33V4.33Z" fill="white"/>
<path d="M47 24.06C47 23.5296 46.7893 23.0209 46.4142 22.6458C46.0391 22.2707 45.5304 22.06 45 22.06H37C36.4696 22.06 35.9609 22.2707 35.5858 22.6458C35.2107 23.0209 35 23.5296 35 24.06V34.06C35 34.5904 35.2107 35.0991 35.5858 35.4742C35.9609 35.8493 36.4696 36.06 37 36.06H45C45.5304 36.06 46.0391 35.8493 46.4142 35.4742C46.7893 35.0991 47 34.5904 47 34.06V24.06ZM43 32.06H39V26.06H43V32.06Z" fill="white"/>
<path d="M42 40.3C41.6916 40.132 41.3444 40.0482 40.9933 40.057C40.6422 40.0657 40.2996 40.1668 40 40.35L36 42.84C35.7691 42.9752 35.5678 43.1553 35.4078 43.3698C35.2478 43.5842 35.1324 43.8285 35.0686 44.0883C35.0047 44.3481 34.9936 44.6181 35.0359 44.8823C35.0783 45.1464 35.1732 45.3994 35.315 45.6263C35.4569 45.8531 35.6428 46.0491 35.8618 46.2028C36.0808 46.3565 36.3284 46.4647 36.5899 46.521C36.8514 46.5773 37.1216 46.5806 37.3844 46.5306C37.6473 46.4806 37.8974 46.3784 38.12 46.23L39.06 45.64V50H38C37.4696 50 36.9609 50.2107 36.5858 50.5858C36.2107 50.9609 36 51.4696 36 52C36 52.5304 36.2107 53.0391 36.5858 53.4142C36.9609 53.7893 37.4696 54 38 54H44C44.5304 54 45.0391 53.7893 45.4142 53.4142C45.7893 53.0391 46 52.5304 46 52C46 51.4696 45.7893 50.9609 45.4142 50.5858C45.0391 50.2107 44.5304 50 44 50H43V42C42.9944 41.6544 42.8994 41.3161 42.7241 41.0182C42.5489 40.7202 42.2994 40.4728 42 40.3V40.3Z" fill="white"/>
<path d="M47 70V60C47 59.4696 46.7893 58.9609 46.4142 58.5858C46.0391 58.2107 45.5304 58 45 58H37C36.4696 58 35.9609 58.2107 35.5858 58.5858C35.2107 58.9609 35 59.4696 35 60V70C35 70.5304 35.2107 71.0391 35.5858 71.4142C35.9609 71.7893 36.4696 72 37 72H45C45.5304 72 46.0391 71.7893 46.4142 71.4142C46.7893 71.0391 47 70.5304 47 70ZM43 68H39V62H43V68Z" fill="white"/>
<path d="M58 4.33C57.6916 4.162 57.3444 4.07818 56.9933 4.08696C56.6422 4.09573 56.2996 4.1968 56 4.38L52 6.87C51.7691 7.00521 51.5678 7.18535 51.4078 7.39978C51.2478 7.6142 51.1324 7.85854 51.0686 8.11834C51.0047 8.37814 50.9936 8.64811 51.0359 8.91227C51.0783 9.17644 51.1732 9.42942 51.315 9.65625C51.4569 9.88308 51.6428 10.0791 51.8618 10.2328C52.0808 10.3865 52.3284 10.4947 52.5899 10.551C52.8514 10.6073 53.1216 10.6106 53.3844 10.5606C53.6473 10.5106 53.8974 10.4084 54.12 10.26L55 9.67V14.07H54C53.4696 14.07 52.9609 14.2807 52.5858 14.6558C52.2107 15.0309 52 15.5396 52 16.07C52 16.6004 52.2107 17.1091 52.5858 17.4842C52.9609 17.8593 53.4696 18.07 54 18.07H60C60.5304 18.07 61.0391 17.8593 61.4142 17.4842C61.7893 17.1091 62 16.6004 62 16.07C62 15.5396 61.7893 15.0309 61.4142 14.6558C61.0391 14.2807 60.5304 14.07 60 14.07H59V6.07C59.0014 5.71758 58.9096 5.37105 58.734 5.06549C58.5584 4.75994 58.3052 4.50621 58 4.33V4.33Z" fill="white"/>
<path d="M63 24.06C63 23.5296 62.7893 23.0209 62.4142 22.6458C62.0391 22.2707 61.5304 22.06 61 22.06H53C52.4696 22.06 51.9609 22.2707 51.5858 22.6458C51.2107 23.0209 51 23.5296 51 24.06V34.06C51 34.5904 51.2107 35.0991 51.5858 35.4742C51.9609 35.8493 52.4696 36.06 53 36.06H61C61.5304 36.06 62.0391 35.8493 62.4142 35.4742C62.7893 35.0991 63 34.5904 63 34.06V24.06ZM59 32.06H55V26.06H59V32.06Z" fill="white"/>
<path d="M58 40.3C57.6916 40.132 57.3444 40.0482 56.9933 40.057C56.6422 40.0657 56.2996 40.1668 56 40.35L52 42.84C51.7691 42.9752 51.5678 43.1553 51.4078 43.3698C51.2478 43.5842 51.1324 43.8285 51.0686 44.0883C51.0047 44.3481 50.9936 44.6181 51.0359 44.8823C51.0783 45.1464 51.1732 45.3994 51.315 45.6263C51.4569 45.8531 51.6428 46.0491 51.8618 46.2028C52.0808 46.3565 52.3284 46.4647 52.5899 46.521C52.8514 46.5773 53.1216 46.5806 53.3844 46.5306C53.6473 46.4806 53.8974 46.3784 54.12 46.23L55.06 45.64V50H54C53.4696 50 52.9609 50.2107 52.5858 50.5858C52.2107 50.9609 52 51.4696 52 52C52 52.5304 52.2107 53.0391 52.5858 53.4142C52.9609 53.7893 53.4696 54 54 54H60C60.5304 54 61.0391 53.7893 61.4142 53.4142C61.7893 53.0391 62 52.5304 62 52C62 51.4696 61.7893 50.9609 61.4142 50.5858C61.0391 50.2107 60.5304 50 60 50H59V42C58.9944 41.6544 58.8994 41.3161 58.7241 41.0182C58.5489 40.7202 58.2994 40.4728 58 40.3V40.3Z" fill="white"/>
<path d="M74 40.3C73.6916 40.132 73.3444 40.0482 72.9933 40.057C72.6422 40.0657 72.2996 40.1668 72 40.35L68 42.84C67.7691 42.9752 67.5678 43.1553 67.4078 43.3698C67.2478 43.5842 67.1324 43.8285 67.0686 44.0883C67.0047 44.3481 66.9936 44.6181 67.0359 44.8823C67.0783 45.1464 67.1732 45.3994 67.315 45.6263C67.4569 45.8531 67.6428 46.0491 67.8618 46.2028C68.0808 46.3565 68.3284 46.4647 68.5899 46.521C68.8514 46.5773 69.1216 46.5806 69.3844 46.5306C69.6473 46.4806 69.8974 46.3784 70.12 46.23L71.06 45.64V50H70C69.4696 50 68.9609 50.2107 68.5858 50.5858C68.2107 50.9609 68 51.4696 68 52C68 52.5304 68.2107 53.0391 68.5858 53.4142C68.9609 53.7893 69.4696 54 70 54H76C76.5304 54 77.0391 53.7893 77.4142 53.4142C77.7893 53.0391 78 52.5304 78 52C78 51.4696 77.7893 50.9609 77.4142 50.5858C77.0391 50.2107 76.5304 50 76 50H75V42C74.9944 41.6544 74.8994 41.3161 74.7241 41.0182C74.5489 40.7202 74.2994 40.4728 74 40.3Z" fill="white"/>
<path d="M83 70C83 70.5304 83.2107 71.0391 83.5858 71.4142C83.9609 71.7893 84.4696 72 85 72H93C93.5304 72 94.0391 71.7893 94.4142 71.4142C94.7893 71.0391 95 70.5304 95 70V60C95 59.4696 94.7893 58.9609 94.4142 58.5858C94.0391 58.2107 93.5304 58 93 58H85C84.4696 58 83.9609 58.2107 83.5858 58.5858C83.2107 58.9609 83 59.4696 83 60V70ZM87 62H91V68H87V62Z" fill="white"/>
<path d="M102 14.07C101.47 14.07 100.961 14.2807 100.586 14.6558C100.211 15.0309 100 15.5396 100 16.07C100 16.6004 100.211 17.1091 100.586 17.4842C100.961 17.8593 101.47 18.07 102 18.07H108C108.53 18.07 109.039 17.8593 109.414 17.4842C109.789 17.1091 110 16.6004 110 16.07C110 15.5396 109.789 15.0309 109.414 14.6558C109.039 14.2807 108.53 14.07 108 14.07H107V6.07C107.001 5.71265 106.906 5.36164 106.725 5.05347C106.544 4.7453 106.284 4.49122 105.971 4.31768C105.659 4.14414 105.306 4.05746 104.948 4.06666C104.591 4.07586 104.243 4.18061 103.94 4.37L99.94 6.86C99.7091 6.99521 99.5078 7.17535 99.3478 7.38978C99.1878 7.6042 99.0724 7.84854 99.0086 8.10834C98.9447 8.36814 98.9336 8.63811 98.9759 8.90227C99.0183 9.16644 99.1132 9.41942 99.255 9.64625C99.3969 9.87308 99.5828 10.0691 99.8018 10.2228C100.021 10.3765 100.268 10.4847 100.53 10.541C100.791 10.5973 101.062 10.6006 101.324 10.5506C101.587 10.5006 101.837 10.3984 102.06 10.25L103 9.66V14.06L102 14.07Z" fill="white"/>
<path d="M122 4.33C121.692 4.162 121.344 4.07818 120.993 4.08696C120.642 4.09573 120.3 4.1968 120 4.38L116 6.87C115.769 7.00521 115.568 7.18535 115.408 7.39978C115.248 7.6142 115.132 7.85854 115.069 8.11834C115.005 8.37814 114.994 8.64811 115.036 8.91227C115.078 9.17644 115.173 9.42942 115.315 9.65625C115.457 9.88308 115.643 10.0791 115.862 10.2328C116.081 10.3865 116.328 10.4947 116.59 10.551C116.851 10.6073 117.122 10.6106 117.384 10.5606C117.647 10.5106 117.897 10.4084 118.12 10.26L119.06 9.67V14.07H118.06C117.53 14.07 117.021 14.2807 116.646 14.6558C116.271 15.0309 116.06 15.5396 116.06 16.07C116.06 16.6004 116.271 17.1091 116.646 17.4842C117.021 17.8593 117.53 18.07 118.06 18.07H124.06C124.59 18.07 125.099 17.8593 125.474 17.4842C125.849 17.1091 126.06 16.6004 126.06 16.07C126.06 15.5396 125.849 15.0309 125.474 14.6558C125.099 14.2807 124.59 14.07 124.06 14.07H123.06V6.07C123.055 5.7116 122.955 5.36101 122.768 5.0549C122.582 4.7488 122.316 4.49843 122 4.33V4.33Z" fill="white"/>
<path d="M14 88C14 87.4696 13.7893 86.9609 13.4142 86.5858C13.0391 86.2107 12.5304 86 12 86H11V78C11.0007 77.6427 10.9057 77.2916 10.7248 76.9835C10.5438 76.6753 10.2837 76.4212 9.97129 76.2477C9.65891 76.0741 9.30574 75.9875 8.94851 75.9967C8.59127 76.0059 8.24303 76.1106 7.94 76.3L3.94 78.79C3.70915 78.9252 3.50776 79.1053 3.34777 79.3198C3.18779 79.5342 3.07244 79.7785 3.00857 80.0383C2.9447 80.2981 2.93361 80.5681 2.97594 80.8323C3.01827 81.0964 3.11318 81.3494 3.25503 81.5762C3.39688 81.8031 3.5828 81.9991 3.80178 82.1528C4.02076 82.3065 4.26835 82.4147 4.5299 82.471C4.79144 82.5273 5.06162 82.5306 5.32444 82.4806C5.58726 82.4306 5.83739 82.3284 6.06 82.18L7 81.63V86H6C5.46957 86 4.96086 86.2107 4.58579 86.5858C4.21071 86.9609 4 87.4696 4 88C4 88.5304 4.21071 89.0391 4.58579 89.4142C4.96086 89.7893 5.46957 90 6 90H12C12.5304 90 13.0391 89.7893 13.4142 89.4142C13.7893 89.0391 14 88.5304 14 88Z" fill="white"/>
<path d="M22 86C21.4696 86 20.9609 86.2107 20.5858 86.5858C20.2107 86.9609 20 87.4696 20 88C20 88.5304 20.2107 89.0391 20.5858 89.4142C20.9609 89.7893 21.4696 90 22 90H28C28.5304 90 29.0391 89.7893 29.4142 89.4142C29.7893 89.0391 30 88.5304 30 88C30 87.4696 29.7893 86.9609 29.4142 86.5858C29.0391 86.2107 28.5304 86 28 86H27V78C27.0007 77.6427 26.9057 77.2916 26.7248 76.9835C26.5438 76.6753 26.2837 76.4212 25.9713 76.2477C25.6589 76.0741 25.3057 75.9875 24.9485 75.9967C24.5913 76.0059 24.243 76.1106 23.94 76.3L19.94 78.79C19.7091 78.9252 19.5078 79.1053 19.3478 79.3198C19.1878 79.5342 19.0724 79.7785 19.0086 80.0383C18.9447 80.2981 18.9336 80.5681 18.9759 80.8323C19.0183 81.0964 19.1132 81.3494 19.255 81.5762C19.3969 81.8031 19.5828 81.9991 19.8018 82.1528C20.0208 82.3065 20.2684 82.4147 20.5299 82.471C20.7914 82.5273 21.0616 82.5306 21.3244 82.4806C21.5873 82.4306 21.8374 82.3284 22.06 82.18L23 81.59V86H22Z" fill="white"/>
<path d="M38 86C37.4696 86 36.9609 86.2107 36.5858 86.5858C36.2107 86.9609 36 87.4696 36 88C36 88.5304 36.2107 89.0391 36.5858 89.4142C36.9609 89.7893 37.4696 90 38 90H44C44.5304 90 45.0391 89.7893 45.4142 89.4142C45.7893 89.0391 46 88.5304 46 88C46 87.4696 45.7893 86.9609 45.4142 86.5858C45.0391 86.2107 44.5304 86 44 86H43V78C43.0007 77.6427 42.9057 77.2916 42.7248 76.9835C42.5438 76.6753 42.2837 76.4212 41.9713 76.2477C41.6589 76.0741 41.3057 75.9875 40.9485 75.9967C40.5913 76.0059 40.243 76.1106 39.94 76.3L35.94 78.79C35.7091 78.9252 35.5078 79.1053 35.3478 79.3198C35.1878 79.5342 35.0724 79.7785 35.0086 80.0383C34.9447 80.2981 34.9336 80.5681 34.9759 80.8323C35.0183 81.0964 35.1132 81.3494 35.255 81.5762C35.3969 81.8031 35.5828 81.9991 35.8018 82.1528C36.0208 82.3065 36.2684 82.4147 36.5299 82.471C36.7914 82.5273 37.0616 82.5306 37.3244 82.4806C37.5873 82.4306 37.8374 82.3284 38.06 82.18L39 81.59V86H38Z" fill="white"/>
<path d="M43 104H42.51L36.24 107.85C36.4811 107.949 36.7393 108 37 108H45C45.5304 108 46.0391 107.789 46.4142 107.414C46.7893 107.039 47 106.53 47 106V101.25L43 103.7V104Z" fill="white"/>
<path d="M51 70C51.0038 70.4922 51.1889 70.9658 51.52 71.33C54.5265 69.0249 58.2116 67.7801 62 67.79C62.34 67.79 62.67 67.79 63 67.84V60C63 59.4696 62.7893 58.9609 62.4142 58.5858C62.0391 58.2107 61.5304 58 61 58H53C52.4696 58 51.9609 58.2107 51.5858 58.5858C51.2107 58.9609 51 59.4696 51 60V70ZM55 62H59V68H55V62Z" fill="white"/>
<path d="M67 68.53C69.3208 69.2303 71.4677 70.4128 73.3 72H77C77.5304 72 78.0391 71.7893 78.4142 71.4142C78.7893 71.0391 79 70.5304 79 70V60C79 59.4696 78.7893 58.9609 78.4142 58.5858C78.0391 58.2107 77.5304 58 77 58H69C68.4696 58 67.9609 58.2107 67.5858 58.5858C67.2107 58.9609 67 59.4696 67 60V68.53ZM71 62H75V68H71V62Z" fill="white"/>
<path d="M59 102V104H55V100.77C53.5604 100.133 52.2146 99.3017 51 98.3V106C51 106.53 51.2107 107.039 51.5858 107.414C51.9609 107.789 52.4696 108 53 108H61C61.5304 108 62.0391 107.789 62.4142 107.414C62.7893 107.039 63 106.53 63 106V102.2C62.67 102.2 62.34 102.25 62 102.25C60.9946 102.254 59.9908 102.171 59 102Z" fill="white"/>
<path d="M125 94H121.2C121.2 94.33 121.25 94.66 121.25 95C121.245 96.0063 121.151 97.0101 120.97 98H122.97V104H118.97V103.49C118.108 105.004 117.022 106.38 115.75 107.57C116.106 107.851 116.547 108.002 117 108H125C125.53 108 126.039 107.789 126.414 107.414C126.789 107.039 127 106.53 127 106V96C127 95.4696 126.789 94.9609 126.414 94.5858C126.039 94.2107 125.53 94 125 94Z" fill="white"/>
<path d="M60 122H59V114C59.0007 113.643 58.9057 113.292 58.7248 112.983C58.5438 112.675 58.2837 112.421 57.9713 112.248C57.6589 112.074 57.3057 111.987 56.9485 111.997C56.5913 112.006 56.243 112.111 55.94 112.3L51.94 114.79C51.7091 114.925 51.5078 115.105 51.3478 115.32C51.1878 115.534 51.0724 115.779 51.0086 116.038C50.9447 116.298 50.9336 116.568 50.9759 116.832C51.0183 117.096 51.1132 117.349 51.255 117.576C51.3969 117.803 51.5828 117.999 51.8018 118.153C52.0208 118.307 52.2684 118.415 52.5299 118.471C52.7914 118.527 53.0616 118.531 53.3244 118.481C53.5873 118.431 53.8374 118.328 54.06 118.18L55 117.59V122H54C53.4696 122 52.9609 122.211 52.5858 122.586C52.2107 122.961 52 123.47 52 124C52 124.53 52.2107 125.039 52.5858 125.414C52.9609 125.789 53.4696 126 54 126H60C60.5304 126 61.0391 125.789 61.4142 125.414C61.7893 125.039 62 124.53 62 124C62 123.47 61.7893 122.961 61.4142 122.586C61.0391 122.211 60.5304 122 60 122Z" fill="white"/>
<path d="M76 122H75V114C75.0007 113.643 74.9057 113.292 74.7248 112.983C74.5438 112.675 74.2837 112.421 73.9713 112.248C73.6589 112.074 73.3057 111.987 72.9485 111.997C72.5913 112.006 72.243 112.111 71.94 112.3L67.94 114.79C67.7091 114.925 67.5078 115.105 67.3478 115.32C67.1878 115.534 67.0724 115.779 67.0086 116.038C66.9447 116.298 66.9336 116.568 66.9759 116.832C67.0183 117.096 67.1132 117.349 67.255 117.576C67.3969 117.803 67.5828 117.999 67.8018 118.153C68.0208 118.307 68.2684 118.415 68.5299 118.471C68.7914 118.527 69.0616 118.531 69.3244 118.481C69.5873 118.431 69.8374 118.328 70.06 118.18L71 117.59V122H70C69.4696 122 68.9609 122.211 68.5858 122.586C68.2107 122.961 68 123.47 68 124C68 124.53 68.2107 125.039 68.5858 125.414C68.9609 125.789 69.4696 126 70 126H76C76.5304 126 77.0391 125.789 77.4142 125.414C77.7893 125.039 78 124.53 78 124C78 123.47 77.7893 122.961 77.4142 122.586C77.0391 122.211 76.5304 122 76 122Z" fill="white"/>
<path d="M92 122H91V114C91.0007 113.643 90.9057 113.292 90.7248 112.983C90.5438 112.675 90.2837 112.421 89.9713 112.248C89.6589 112.074 89.3057 111.987 88.9485 111.997C88.5913 112.006 88.243 112.111 87.94 112.3L83.94 114.79C83.7091 114.925 83.5078 115.105 83.3478 115.32C83.1878 115.534 83.0724 115.779 83.0086 116.038C82.9447 116.298 82.9336 116.568 82.9759 116.832C83.0183 117.096 83.1132 117.349 83.255 117.576C83.3969 117.803 83.5828 117.999 83.8018 118.153C84.0208 118.307 84.2684 118.415 84.5299 118.471C84.7914 118.527 85.0616 118.531 85.3244 118.481C85.5873 118.431 85.8374 118.328 86.06 118.18L87 117.59V122H86C85.4696 122 84.9609 122.211 84.5858 122.586C84.2107 122.961 84 123.47 84 124C84 124.53 84.2107 125.039 84.5858 125.414C84.9609 125.789 85.4696 126 86 126H92C92.5304 126 93.0391 125.789 93.4142 125.414C93.7893 125.039 94 124.53 94 124C94 123.47 93.7893 122.961 93.4142 122.586C93.0391 122.211 92.5304 122 92 122Z" fill="white"/>
<path d="M108 122H107V114C107.001 113.643 106.906 113.292 106.725 112.983C106.544 112.675 106.284 112.421 105.971 112.248C105.659 112.074 105.306 111.987 104.948 111.997C104.591 112.006 104.243 112.111 103.94 112.3L99.94 114.79C99.7091 114.925 99.5078 115.105 99.3478 115.32C99.1878 115.534 99.0724 115.779 99.0086 116.038C98.9447 116.298 98.9336 116.568 98.9759 116.832C99.0183 117.096 99.1132 117.349 99.255 117.576C99.3969 117.803 99.5828 117.999 99.8018 118.153C100.021 118.307 100.268 118.415 100.53 118.471C100.791 118.527 101.062 118.531 101.324 118.481C101.587 118.431 101.837 118.328 102.06 118.18L103 117.59V122H102C101.47 122 100.961 122.211 100.586 122.586C100.211 122.961 100 123.47 100 124C100 124.53 100.211 125.039 100.586 125.414C100.961 125.789 101.47 126 102 126H108C108.53 126 109.039 125.789 109.414 125.414C109.789 125.039 110 124.53 110 124C110 123.47 109.789 122.961 109.414 122.586C109.039 122.211 108.53 122 108 122Z" fill="white"/>
<path d="M124 122H123V114C123.001 113.643 122.906 113.292 122.725 112.983C122.544 112.675 122.284 112.421 121.971 112.248C121.659 112.074 121.306 111.987 120.948 111.997C120.591 112.006 120.243 112.111 119.94 112.3L115.94 114.79C115.709 114.925 115.508 115.105 115.348 115.32C115.188 115.534 115.072 115.779 115.009 116.038C114.945 116.298 114.934 116.568 114.976 116.832C115.018 117.096 115.113 117.349 115.255 117.576C115.397 117.803 115.583 117.999 115.802 118.153C116.021 118.307 116.268 118.415 116.53 118.471C116.791 118.527 117.062 118.531 117.324 118.481C117.587 118.431 117.837 118.328 118.06 118.18L119 117.59V122H118C117.47 122 116.961 122.211 116.586 122.586C116.211 122.961 116 123.47 116 124C116 124.53 116.211 125.039 116.586 125.414C116.961 125.789 117.47 126 118 126H124C124.53 126 125.039 125.789 125.414 125.414C125.789 125.039 126 124.53 126 124C126 123.47 125.789 122.961 125.414 122.586C125.039 122.211 124.53 122 124 122Z" fill="white"/>
<path d="M3 96V97.33C4.26527 96.0434 5.69021 94.9243 7.24 94H5C4.46957 94 3.96086 94.2107 3.58579 94.5858C3.21071 94.9609 3 95.4696 3 96V96Z" fill="white"/>
<path d="M29 94H28.76C29.51 94.4481 30.2314 94.9424 30.92 95.48C30.8062 95.0571 30.5566 94.6833 30.2098 94.4159C29.863 94.1486 29.4379 94.0025 29 94Z" fill="white"/>
<path d="M44 122H43V114C43.0007 113.643 42.9057 113.292 42.7248 112.983C42.5438 112.675 42.2837 112.421 41.9713 112.248C41.6589 112.074 41.3057 111.987 40.9485 111.997C40.5913 112.006 40.243 112.111 39.94 112.3L38.94 112.92C38.8726 114.704 38.5769 116.471 38.06 118.18L38.99 117.6V122H38C37.4696 122 36.9609 122.211 36.5858 122.586C36.2107 122.961 36 123.47 36 124C36 124.53 36.2107 125.039 36.5858 125.414C36.9609 125.789 37.4696 126 38 126H44C44.5304 126 45.0391 125.789 45.4142 125.414C45.7893 125.039 46 124.53 46 124C46 123.47 45.7893 122.961 45.4142 122.586C45.0391 122.211 44.5304 122 44 122Z" fill="white"/>
<path d="M91 85.76V78C91.0007 77.6427 90.9057 77.2916 90.7248 76.9835C90.5438 76.6753 90.2837 76.4212 89.9713 76.2477C89.6589 76.0741 89.3057 75.9875 88.9485 75.9967C88.5913 76.0059 88.243 76.1106 87.94 76.3L83.94 78.79C83.7091 78.9252 83.5078 79.1053 83.3478 79.3198C83.1878 79.5342 83.0724 79.7785 83.0086 80.0383C82.9447 80.2981 82.9336 80.5681 82.9759 80.8323C83.0183 81.0964 83.1132 81.3494 83.255 81.5762C83.3969 81.8031 83.5828 81.9991 83.8018 82.1528C84.0208 82.3065 84.2684 82.4147 84.5299 82.471C84.7914 82.5273 85.0616 82.5306 85.3244 82.4806C85.5873 82.4306 85.8374 82.3284 86.06 82.18L87 81.59V84.77L91 85.76Z" fill="white"/>
<path d="M87 98C86.95 97.7 86.91 97.4 86.88 97.1L83 96.19V106C83 106.53 83.2107 107.039 83.5858 107.414C83.9609 107.789 84.4696 108 85 108H92.7C91.3739 106.846 90.2308 105.497 89.31 104H87V98Z" fill="white"/>
<path d="M76.3 94.59C75.4548 95.857 74.4461 97.0069 73.3 98.01H75V104.01H71V99.71C69.7502 100.486 68.4059 101.097 67 101.53V106C67 106.53 67.2107 107.039 67.5858 107.414C67.9609 107.789 68.4696 108 69 108H77C77.5304 108 78.0391 107.789 78.4142 107.414C78.7893 107.039 79 106.53 79 106V96C79.0001 95.7136 78.9387 95.4306 78.82 95.17L76.3 94.59Z" fill="white"/>
<path d="M111 26.09V24.09C111 23.5596 110.789 23.0509 110.414 22.6758C110.039 22.3007 109.53 22.09 109 22.09H101C100.47 22.09 99.9609 22.3007 99.5858 22.6758C99.2107 23.0509 99 23.5596 99 24.09V24.2L102.76 28.26L103 28.15V26.06H107V26.68C108.311 26.353 109.651 26.1553 111 26.09V26.09Z" fill="white"/>
<path d="M127 32.39V24.06C127 23.5296 126.789 23.0209 126.414 22.6458C126.039 22.2707 125.53 22.06 125 22.06H117C116.47 22.06 115.961 22.2707 115.586 22.6458C115.211 23.0209 115 23.5296 115 24.06V26.3C116.363 26.5 117.703 26.835 119 27.3V26.06H123V29.2C124.458 30.0973 125.801 31.1685 127 32.39V32.39Z" fill="white"/>
<path d="M101.75 72L102.75 65.84C101.421 65.19 100.164 64.4023 99 63.49V70C99 70.5304 99.2107 71.0391 99.5858 71.4142C99.9609 71.7893 100.47 72 101 72H101.75Z" fill="white"/>
<path d="M123 68H119V66.8C117.703 67.2647 116.363 67.5996 115 67.8V70C115 70.5304 115.211 71.0391 115.586 71.4142C115.961 71.7893 116.47 72 117 72H125C125.53 72 126.039 71.7893 126.414 71.4142C126.789 71.0391 127 70.5304 127 70V61.68C125.802 62.9051 124.458 63.9797 123 64.88V68Z" fill="white"/>
<path d="M86 50C85.4696 50 84.9609 50.2107 84.5858 50.5858C84.2107 50.9609 84 51.4696 84 52C84 52.5304 84.2107 53.0391 84.5858 53.4142C84.9609 53.7893 85.4696 54 86 54H92H92.21C91.7444 52.7033 91.4094 51.3633 91.21 50H91V42C91.0007 41.6427 90.9057 41.2916 90.7248 40.9835C90.5438 40.6753 90.2837 40.4212 89.9713 40.2477C89.6589 40.0741 89.3057 39.9875 88.9485 39.9967C88.5913 40.0059 88.243 40.1106 87.94 40.3L83.94 42.79C83.7091 42.9252 83.5078 43.1053 83.3478 43.3198C83.1878 43.5342 83.0724 43.7785 83.0086 44.0383C82.9447 44.2981 82.9336 44.5681 82.9759 44.8323C83.0183 45.0964 83.1132 45.3494 83.255 45.5763C83.3969 45.8031 83.5828 45.9991 83.8018 46.1528C84.0208 46.3065 84.2684 46.4147 84.5299 46.471C84.7914 46.5273 85.0616 46.5306 85.3244 46.4806C85.5873 46.4306 85.8374 46.3284 86.06 46.18L87 45.59V50H86Z" fill="white"/>
<path d="M67 23.73C66.9909 23.8398 66.9909 23.9502 67 24.06V34.06C67 34.5904 67.2107 35.0991 67.5858 35.4742C67.9608 35.8493 68.4695 36.06 69 36.06H77C77.5304 36.06 78.0391 35.8493 78.4142 35.4742C78.7893 35.0991 79 34.5904 79 34.06V30.93C77.6307 30.7618 76.2873 30.4259 75 29.93V32.04H71V27.78C69.45 26.6627 68.098 25.2938 67 23.73V23.73Z" fill="white"/>
<path d="M83 30.93V34.06C83 34.5904 83.2107 35.0991 83.5858 35.4742C83.9609 35.8493 84.4696 36.06 85 36.06H93C93.1934 36.0577 93.3853 36.0274 93.57 35.97L92.69 34.97L89.96 31.97H87V29.94C85.7122 30.4323 84.3688 30.7648 83 30.93V30.93Z" fill="white"/>
<path d="M112 30.06C108.405 30.0546 104.901 31.1967 102 33.32L91.45 21.89C93.4281 19.2478 94.3359 15.9563 93.9918 12.6736C93.6478 9.391 92.0773 6.35922 89.5944 4.18454C87.1115 2.00987 83.8992 0.852596 80.5998 0.944147C77.3005 1.0357 74.1573 2.36932 71.7988 4.67834C69.4403 6.98735 68.0403 10.1016 67.8789 13.3982C67.7174 16.6949 68.8063 19.931 70.9278 22.4595C73.0494 24.9879 76.0472 26.6223 79.3218 27.0359C82.5964 27.4494 85.9064 26.6116 88.59 24.69L99.08 36C97.2325 38.1545 95.9555 40.7384 95.3663 43.5148C94.777 46.2911 94.8944 49.171 95.7075 51.8901C96.5207 54.6093 98.0037 57.0808 100.02 59.0778C102.037 61.0749 104.523 62.5335 107.25 63.32L104.18 81.76H104C101.368 81.7606 98.7956 82.5445 96.6105 84.0119C94.4254 85.4793 92.7265 87.5638 91.73 90L75.2 86.11C75.2199 85.7503 75.2199 85.3897 75.2 85.03C75.1973 83.0692 74.7595 81.1335 73.9181 79.3624C73.0767 77.5913 71.8527 76.0291 70.3344 74.7883C68.8162 73.5475 67.0414 72.6592 65.1383 72.1874C63.2351 71.7156 61.2509 71.6721 59.3289 72.0599C57.4069 72.4478 55.5949 73.2574 54.0237 74.4304C52.4524 75.6034 51.1611 77.1105 50.2428 78.8429C49.3246 80.5754 48.8022 82.4901 48.7136 84.4488C48.6249 86.4076 48.972 88.3616 49.73 90.17L31.32 101.49C28.6165 98.0741 24.71 95.8202 20.3997 95.1895C16.0893 94.5588 11.7008 95.599 8.13202 98.0972C4.56324 100.595 2.08389 104.363 1.20119 108.629C0.318491 112.895 1.09916 117.337 3.38349 121.046C5.66782 124.755 9.28315 127.452 13.4899 128.583C17.6966 129.715 22.1767 129.196 26.0138 127.134C29.8508 125.071 32.7548 121.62 34.1315 117.487C35.5082 113.354 35.2537 108.852 33.42 104.9L51.89 93.58C53.3633 95.3201 55.2607 96.6505 57.3986 97.4427C59.5366 98.2349 61.8428 98.4619 64.0942 98.102C66.3456 97.742 68.4661 96.8071 70.2504 95.3878C72.0348 93.9685 73.4227 92.1127 74.28 90L90.81 93.93C90.81 94.29 90.75 94.65 90.75 95.02C90.7476 97.463 91.4206 99.8591 92.6947 101.944C93.9689 104.028 95.7945 105.72 97.9698 106.831C100.145 107.943 102.586 108.432 105.021 108.244C107.457 108.055 109.793 107.197 111.772 105.764C113.751 104.331 115.294 102.379 116.233 100.124C117.172 97.8683 117.468 95.3972 117.09 92.9836C116.713 90.57 115.675 88.3078 114.092 86.4471C112.509 84.5864 110.442 83.1996 108.12 82.44L111.2 64C111.47 64 111.73 64 112 64C116.509 64 120.833 62.2089 124.021 59.0208C127.209 55.8327 129 51.5087 129 47C129 42.4913 127.209 38.1673 124.021 34.9792C120.833 31.7911 116.509 30 112 30V30.06ZM81 23.14C79.2065 23.138 77.4539 22.6044 75.9637 21.6066C74.4735 20.6087 73.3125 19.1915 72.6275 17.534C71.9426 15.8765 71.7644 14.0532 72.1155 12.2944C72.4666 10.5357 73.3312 8.92048 74.6001 7.65302C75.8689 6.38556 77.4851 5.52271 79.2442 5.17356C81.0033 4.8244 82.8265 5.0046 84.4832 5.69138C86.14 6.37816 87.5559 7.54069 88.5521 9.03202C89.5483 10.5234 90.08 12.2766 90.08 14.07C90.08 15.2619 89.8451 16.4422 89.3886 17.5433C88.9322 18.6443 88.2632 19.6446 87.4199 20.487C86.5766 21.3294 85.5756 21.9972 84.474 22.4525C83.3724 22.9077 82.1919 23.1413 81 23.14V23.14ZM18 125C15.4288 125 12.9154 124.238 10.7776 122.809C8.63974 121.381 6.97349 119.35 5.98956 116.975C5.00562 114.599 4.74817 111.986 5.24978 109.464C5.75139 106.942 6.98952 104.626 8.8076 102.808C10.6257 100.99 12.9421 99.7514 15.4638 99.2498C17.9856 98.7482 20.5994 99.0056 22.9749 99.9896C25.3503 100.974 27.3806 102.64 28.8091 104.778C30.2376 106.915 31 109.429 31 112C31 113.707 30.6637 115.398 30.0104 116.975C29.3571 118.552 28.3995 119.985 27.1924 121.192C25.9852 122.4 24.5521 123.357 22.9749 124.01C21.3976 124.664 19.7072 125 18 125V125ZM71.25 85.17C71.2315 87.633 70.2377 89.9884 68.4862 91.7202C66.7347 93.452 64.3683 94.4192 61.9053 94.4099C59.4422 94.4007 57.0831 93.4157 55.3447 91.6708C53.6063 89.9258 52.6303 87.5631 52.6303 85.1C52.6303 82.6369 53.6063 80.2742 55.3447 78.5292C57.0831 76.7843 59.4422 75.7993 61.9053 75.7901C64.3683 75.7808 66.7347 76.748 68.4862 78.4798C70.2377 80.2116 71.2315 82.567 71.25 85.03V85.17ZM113.25 95.02C113.252 96.8499 112.711 98.6393 111.696 100.162C110.681 101.684 109.237 102.871 107.547 103.573C105.857 104.275 103.997 104.459 102.202 104.103C100.407 103.748 98.7574 102.868 97.4628 101.574C96.1682 100.281 95.2862 98.6329 94.9285 96.8383C94.5707 95.0437 94.7533 93.1833 95.4532 91.4925C96.153 89.8017 97.3386 88.3564 98.8599 87.3396C100.381 86.3228 102.17 85.78 104 85.78C106.448 85.78 108.796 86.7504 110.53 88.4786C112.264 90.2069 113.242 92.5519 113.25 95V95.02ZM112 60C109.429 60 106.915 59.2376 104.778 57.8091C102.64 56.3807 100.973 54.3503 99.9896 51.9749C99.0056 49.5994 98.7482 46.9856 99.2498 44.4638C99.7514 41.9421 100.99 39.6257 102.808 37.8076C104.626 35.9895 106.942 34.7514 109.464 34.2498C111.986 33.7482 114.599 34.0056 116.975 34.9896C119.35 35.9735 121.381 37.6398 122.809 39.7776C124.238 41.9154 125 44.4288 125 47C125 50.4478 123.63 53.7544 121.192 56.1924C118.754 58.6304 115.448 60 112 60V60Z" fill="white"/>
<path d="M122 76.28C121.692 76.112 121.344 76.0282 120.993 76.037C120.642 76.0457 120.3 76.1468 120 76.33L116 78.82C115.769 78.9552 115.568 79.1354 115.408 79.3498C115.248 79.5642 115.132 79.8085 115.069 80.0683C115.005 80.3281 114.994 80.5981 115.036 80.8623C115.078 81.1264 115.173 81.3794 115.315 81.6062C115.457 81.8331 115.643 82.0291 115.862 82.1828C116.081 82.3365 116.328 82.4447 116.59 82.501C116.851 82.5573 117.122 82.5606 117.384 82.5106C117.647 82.4606 117.897 82.3584 118.12 82.21L119.06 81.62V86H118.75C119.526 87.2496 120.138 88.594 120.57 90H124C124.53 90 125.039 89.7893 125.414 89.4142C125.789 89.0391 126 88.5304 126 88C126 87.4696 125.789 86.9609 125.414 86.5858C125.039 86.2107 124.53 86 124 86H123V78C122.998 77.651 122.904 77.3086 122.729 77.0068C122.554 76.7051 122.302 76.4545 122 76.28Z" fill="white"/>
</svg>
