<svg xmlns="http://www.w3.org/2000/svg" xmlns:xlink="http://www.w3.org/1999/xlink" version="1.1" x="0px" y="0px" viewBox="0 0 100 125" style="enable-background:new 0 0 100 100;" xml:space="preserve"><g><path d="M78.7,77.2c-0.1,0-0.3,0-0.4,0l-55.1,0c-9.9,0-17.9-8-17.9-17.9C5.3,51,11,43.8,19,42c-0.2-1-0.2-2.1-0.2-3.3   c0-11.9,9.7-21.7,21.7-21.7c7.8,0,15,4.3,18.8,11c1.3-0.3,2.5-0.4,3.7-0.4c9.3,0,16.9,7.6,16.9,16.9c0,0,0,0,0,0.1   c8.4,0.8,14.9,7.8,14.9,16.4c0,4.5-1.8,8.7-5,11.8C86.8,75.6,82.8,77.2,78.7,77.2z M40.4,21c-9.7,0-17.7,7.9-17.7,17.7   c0,1.7,0.2,3.1,0.6,4.3c0.2,0.6,0.1,1.2-0.2,1.7c-0.3,0.5-0.9,0.8-1.5,0.9c-7.1,0.8-12.4,6.7-12.4,13.8c0,7.6,6.2,13.9,13.9,13.9   h55.2c3.3,0.1,6.4-1.1,8.7-3.4c2.4-2.4,3.7-5.5,3.7-8.9c0-6.9-5.6-12.4-12.4-12.4h-0.7c-0.6,0-1.1-0.3-1.5-0.7s-0.6-1-0.5-1.6   c0.1-0.6,0.2-1.2,0.2-1.7c0-7.1-5.8-12.9-12.9-12.9c-1.4,0-2.7,0.2-4.2,0.7c-1,0.3-2-0.2-2.4-1.1C53.5,25,47.2,21,40.4,21z"/></g><text x="0" y="115" fill="#000000" font-size="5px" font-weight="bold" font-family="'Helvetica Neue', Helvetica, Arial-Unicode, Arial, Sans-serif">Created by  Thays Malcher</text><text x="0" y="120" fill="#000000" font-size="5px" font-weight="bold" font-family="'Helvetica Neue', Helvetica, Arial-Unicode, Arial, Sans-serif">from the Noun Project</text></svg>