<svg xmlns="http://www.w3.org/2000/svg" xmlns:xlink="http://www.w3.org/1999/xlink" version="1.1" x="0px" y="0px" viewBox="0 0 96 120" enable-background="new 0 0 96 96" xml:space="preserve"><circle cx="14.373" cy="25.394" r="3.083"/><circle cx="22.737" cy="25.394" r="3.083"/><circle cx="31.102" cy="25.394" r="3.083"/><rect x="69.419" y="23.894" width="13.79" height="3"/><path d="M34.729,62.576l-3.806,3.806l5.817,5.817l3.806-3.807c1.054,0.593,2.171,1.054,3.341,1.38v5.387h8.226v-5.387  c1.17-0.325,2.288-0.787,3.341-1.38l3.806,3.807l5.817-5.817l-3.806-3.806c0.593-1.054,1.054-2.171,1.38-3.341h5.386v-8.226h-5.386  c-0.326-1.17-0.787-2.287-1.38-3.341l3.806-3.805l-5.817-5.817l-3.806,3.806c-1.054-0.593-2.171-1.054-3.341-1.38v-5.386h-8.226  v5.386c-1.17,0.326-2.288,0.787-3.341,1.38l-3.806-3.806l-5.817,5.817l3.806,3.805c-0.593,1.054-1.054,2.171-1.379,3.341h-5.387  v8.226h5.387C33.675,60.405,34.136,61.522,34.729,62.576z M30.963,54.008h4.812l0.234-1.216c0.314-1.629,0.94-3.146,1.861-4.508  l0.693-1.025l-3.398-3.397l1.574-1.575l3.398,3.398l1.025-0.693c1.361-0.92,2.878-1.547,4.508-1.862l1.215-0.235v-4.811h2.226v4.811  l1.215,0.235c1.63,0.315,3.146,0.941,4.508,1.862l1.025,0.693l3.398-3.398l1.574,1.575l-3.398,3.397l0.693,1.025  c0.92,1.362,1.547,2.879,1.862,4.508l0.235,1.215h4.811v2.226h-4.811l-0.235,1.215c-0.315,1.63-0.941,3.146-1.862,4.508  l-0.693,1.025l3.398,3.398l-1.575,1.574l-3.398-3.399l-1.026,0.694c-1.361,0.921-2.877,1.547-4.506,1.861l-1.216,0.234v4.813h-2.226  v-4.813l-1.216-0.234c-1.629-0.313-3.146-0.94-4.506-1.861l-1.026-0.694l-3.398,3.399l-1.575-1.574l3.398-3.398l-0.693-1.025  c-0.921-1.361-1.547-2.878-1.861-4.507l-0.234-1.216h-4.812V54.008z"/><path d="M48,62.093c3.844,0,6.972-3.127,6.972-6.971c0-3.844-3.127-6.972-6.972-6.972s-6.972,3.127-6.972,6.972  C41.028,58.965,44.156,62.093,48,62.093z M48,51.15c2.19,0,3.972,1.782,3.972,3.972S50.19,59.093,48,59.093  s-3.972-1.781-3.972-3.971S45.81,51.15,48,51.15z"/><path d="M85.979,16.208H10.021C6.701,16.208,4,18.909,4,22.229v19.174v6.746v1.5v10.943v1.5v5.248v1.499v4.933  c0,3.32,2.701,6.021,6.021,6.021h75.957c3.32,0,6.021-2.701,6.021-6.021l-0.011-4.933H92v-6.746v-1.5V49.65v-1.5v-5.249v-1.498  V22.229C92,18.909,89.299,16.208,85.979,16.208z M7,51.442c0.964,0.392,1.754,1.156,2.17,2.16c0.406,0.979,0.406,2.059,0,3.039  C8.764,57.621,8,58.385,7.021,58.791C7.014,58.793,7.007,58.796,7,58.799V51.442z M7,61.925c0.397-0.088,0.789-0.205,1.169-0.363  c1.72-0.712,3.06-2.052,3.772-3.772c0.713-1.721,0.713-3.616,0-5.336c-0.886-2.139-2.746-3.64-4.941-4.123v-5.328  c0.316,0.039,0.632,0.08,0.941,0.143l1.213,0.248l1.838-4.439l2.057,0.852l-1.84,4.44l1.033,0.683  c1.373,0.906,2.532,2.067,3.446,3.452l0.682,1.033l4.444-1.84l0.852,2.057l-4.445,1.841l0.249,1.214  c0.333,1.624,0.335,3.265,0.005,4.876l-0.248,1.213l4.44,1.839l-0.852,2.056l-4.439-1.838l-0.682,1.032  c-0.906,1.371-2.068,2.53-3.454,3.445l-1.034,0.683l1.843,4.444l-2.057,0.853l-1.841-4.446L7.938,67.09  C7.629,67.154,7.314,67.194,7,67.234V61.925z M89,58.8c-0.964-0.392-1.754-1.156-2.169-2.159c-0.838-2.023,0.126-4.351,2.148-5.189  c0.007-0.003,0.014-0.006,0.021-0.008V58.8z M89,48.318c-0.396,0.087-0.788,0.205-1.168,0.362c-1.72,0.713-3.06,2.053-3.772,3.773  c-0.713,1.721-0.713,3.616,0,5.335c0.885,2.138,2.745,3.64,4.941,4.122v5.327c-0.316-0.039-0.632-0.079-0.942-0.142l-1.212-0.247  l-1.838,4.439l-2.056-0.852l1.839-4.441l-1.033-0.682c-1.372-0.905-2.531-2.067-3.445-3.452l-0.683-1.035l-4.444,1.843l-0.853-2.056  l4.444-1.84L78.53,57.56c-0.332-1.627-0.333-3.268-0.004-4.878l0.248-1.212l-4.44-1.839l0.852-2.057l4.441,1.84l0.682-1.034  c0.907-1.374,2.068-2.532,3.45-3.443l1.035-0.682l-1.841-4.447l2.057-0.852l1.843,4.446l1.213-0.249  c0.309-0.063,0.622-0.104,0.936-0.143V48.318z M89,39.979c-0.102,0.01-0.204,0.021-0.306,0.034l-2.063-4.977l-7.599,3.147  l2.06,4.977c-0.955,0.748-1.811,1.602-2.558,2.553l-4.974-2.06l-3.148,7.6l4.973,2.061c-0.144,1.2-0.143,2.409,0.004,3.614  l-4.977,2.061l3.149,7.601l4.975-2.063c0.749,0.957,1.603,1.813,2.554,2.56l-2.059,4.973l7.599,3.148l2.06-4.975  c0.103,0.012,0.205,0.023,0.308,0.033v3.506c0,1.666-1.355,3.021-3.021,3.021H10.021C8.355,76.793,7,75.438,7,73.772v-3.509  c0.103-0.01,0.205-0.021,0.307-0.034l2.061,4.979l7.601-3.149l-2.063-4.976c0.957-0.749,1.813-1.603,2.56-2.553l4.973,2.06  l3.146-7.6l-4.971-2.06c0.144-1.201,0.143-2.41-0.004-3.615l4.976-2.061l-3.148-7.601l-4.976,2.061  c-0.749-0.957-1.603-1.812-2.554-2.559l2.06-4.972l-7.601-3.148l-2.06,4.974C7.206,39.997,7.103,39.986,7,39.976V33.45h82V39.979z   M89,30.45H7v-8.221c0-1.666,1.355-3.021,3.021-3.021h75.957c1.666,0,3.021,1.355,3.021,3.021V30.45z"/><text x="0" y="111" fill="#000000" font-size="5px" font-weight="bold" font-family="'Helvetica Neue', Helvetica, Arial-Unicode, Arial, Sans-serif">Created by faisalovers</text><text x="0" y="116" fill="#000000" font-size="5px" font-weight="bold" font-family="'Helvetica Neue', Helvetica, Arial-Unicode, Arial, Sans-serif">from the Noun Project</text></svg>