<svg xmlns="http://www.w3.org/2000/svg" xmlns:xlink="http://www.w3.org/1999/xlink" version="1.1" x="0px" y="0px" viewBox="0 0 100 125" style="enable-background:new 0 0 100 100;" xml:space="preserve">
    <g>
        <path d="M83,36.9v-7.2c0-2.8-2.2-5-5-5H20c-2.8,0-5,2.2-5,5v38.6c0,2,1.2,3.8,3,4.6v0.4v2h2h2h2h2h2h2h2v-2h2.2v2h2h10.2h2v-2h3.1   v0.1v2h2h4.1h2v-2v-0.1h18.3c2.8,0,5-2.2,5-5H83h2v-2V56.1v-2h-2V49h2v-2v-8.1v-2H83z M36.2,73.3v-2v-6.1h10.2v6.1v2H36.2z    M57.6,73.4h-4.1v-0.1v-2v-6.1h4.1v6.1V73.4L57.6,73.4z M83,66.3L83,66.3h-2.1H69.8V56.1H81h2V66.3z M81,54.1H69.8h-2v2v10.2v2h2   h11.1c0,1.6-1.3,3-3,3H59.6v-6.1v-2h-2h-4.1h-2v2v6.1h-3.1v-6.1v-2h-2H36.2h-2v2v6.1H30v2h-2v-2h-2v2h-2v-2h-2v2h-2v-2   c-1.6,0-3-1.3-3-3V29.7c0-1.6,1.3-3,3-3h58c1.6,0,3,1.3,3,3v7.2h-9.2h-2v2V47v2h2H81V54.1z M83,47h-2h-9.2v-8.1H81h2V47z"/>
        <circle cx="31.3" cy="56.8" r="1"/>
        <rect x="20" y="39.5" width="4" height="3"/>
        <polygon points="24,58.7 22,58.7 22,56.6 24,56.6 24,54.6 22,54.6 22,52.5 24,52.5 24,50.5 22,50.5 22,48.5 24,48.5 24,46.5    20,46.5 20,60.8 24,60.8  "/>
        <circle cx="22.1" cy="66.3" r="2"/>
        <path d="M22.1,29.8c-1.1,0-2,0.9-2,2c0,1.1,0.9,2,2,2s2-1,2-2C24.1,30.7,23.2,29.8,22.1,29.8z"/>
        <rect x="47.9" y="28.7" width="2" height="2"/>
        <rect x="47.9" y="32.7" width="2" height="2"/>
        <rect x="43.9" y="28.7" width="2" height="2"/>
        <rect x="27.9" y="28.7" width="2" height="2"/>
        <rect x="27.9" y="32.7" width="2" height="2"/>
        <polygon points="31.2,39.5 27.2,39.5 27.2,41.6 29.2,41.6 29.2,43.6 27.2,43.6 27.2,45.7 29.2,45.7 29.2,47.7 27.2,47.7 27.2,49.6    31.2,49.6  "/>
        <path d="M27.2,60.8h8.1v-8.1h-8.1C27.2,52.7,27.2,60.8,27.2,60.8z M29.2,54.7h4.1v4.1h-4.1C29.2,58.8,29.2,54.7,29.2,54.7z"/>
        <rect x="31.9" y="32.7" width="2" height="2"/>
        <rect x="31.9" y="28.7" width="2" height="2"/>
        <rect x="35.9" y="32.7" width="2" height="2"/>
        <rect x="35.9" y="28.7" width="2" height="2"/>
        <rect x="39.9" y="32.7" width="2" height="2"/>
        <rect x="39.9" y="28.7" width="2" height="2"/>
        <rect x="43.9" y="32.7" width="2" height="2"/>
        <rect x="42.4" y="69.3" width="2" height="2"/>
        <path d="M46.5,39.5h-0.8l-0.6,0.6l-2,2l-0.6,0.6v0.8v7.1v2h2h9.1h2v-2v-9.1v-2h-2C53.6,39.5,46.5,39.5,46.5,39.5z M53.6,50.6h-9.1   v-7.1l2-2h7.1V50.6z"/>
        <rect x="51.9" y="32.7" width="2" height="2"/>
        <rect x="51.9" y="28.7" width="2" height="2"/>
        <rect x="55.9" y="32.7" width="2" height="2"/>
        <rect x="55.9" y="28.7" width="2" height="2"/>
        <circle cx="63.7" cy="66.3" r="2"/>
        <path d="M63.7,29.8c-1.1,0-2,0.9-2,2c0,1.1,0.9,2,2,2c1.1,0,2-1,2-2C65.7,30.7,64.8,29.8,63.7,29.8z"/>
        <polygon points="76.5,44 78.3,44.8 78.3,43.8 77.5,43.1 77.5,42.8 78.3,42.1 78.3,41.1 76.5,41.9  "/>
        <polygon points="75.5,62.3 77.3,63.1 77.3,62.1 76.5,61.4 76.5,61 77.3,60.4 77.3,59.4 75.5,60.2  "/>
    </g>
</svg>