<svg xmlns="http://www.w3.org/2000/svg" data-name="Layer 1" viewBox="0 0 128 160" x="0px" y="0px"><title>miscellaneous 37 final</title><path d="M9,3.33a2,2,0,0,0-2,.05l-4,2.49A2,2,0,1,0,5.06,9.26L6,8.67v4.4H5a2,2,0,1,0,0,4h6a2,2,0,1,0,0-4H10v-8A2,2,0,0,0,9,3.33Z"/><path d="M14,23.06a2,2,0,0,0-2-2H4a2,2,0,0,0-2,2v10a2,2,0,0,0,2,2h8a2,2,0,0,0,2-2Zm-4,8H6v-6h4Z"/><path d="M9,39.3a2,2,0,0,0-2,.05l-4,2.49a2,2,0,1,0,2.12,3.39L6,44.65V49H5a2,2,0,1,0,0,4h6a2,2,0,1,0,0-4H10v-8A2,2,0,0,0,9,39.3Z"/><path d="M14,69V59a2,2,0,0,0-2-2H4a2,2,0,0,0-2,2V69a2,2,0,0,0,2,2h8A2,2,0,0,0,14,69Zm-4-2H6V61h4Z"/><path d="M25,3.33a2,2,0,0,0-2,.05l-4,2.49a2,2,0,1,0,2.12,3.39L22,8.67v4.4H21a2,2,0,1,0,0,4h6a2,2,0,1,0,0-4H26v-8A2,2,0,0,0,25,3.33Z"/><path d="M30,23.06a2,2,0,0,0-2-2H20a2,2,0,0,0-2,2v10a2,2,0,0,0,2,2h8a2,2,0,0,0,2-2Zm-4,8H22v-6h4Z"/><path d="M25,39.3a2,2,0,0,0-2,.05l-4,2.49a2,2,0,1,0,2.12,3.39l.94-.59V49H21a2,2,0,1,0,0,4h6a2,2,0,1,0,0-4H26v-8A2,2,0,0,0,25,39.3Z"/><path d="M30,59a2,2,0,0,0-2-2H20a2,2,0,0,0-2,2V69a2,2,0,0,0,2,2h8a2,2,0,0,0,2-2Zm-4,8H22V61h4Z"/><path d="M41,3.33a2,2,0,0,0-2,.05l-4,2.49a2,2,0,1,0,2.12,3.39L38,8.67v4.4H37a2,2,0,1,0,0,4h6a2,2,0,1,0,0-4H42v-8A2,2,0,0,0,41,3.33Z"/><path d="M46,23.06a2,2,0,0,0-2-2H36a2,2,0,0,0-2,2v10a2,2,0,0,0,2,2h8a2,2,0,0,0,2-2Zm-4,8H38v-6h4Z"/><path d="M41,39.3a2,2,0,0,0-2,.05l-4,2.49a2,2,0,1,0,2.12,3.39l.94-.59V49H37a2,2,0,1,0,0,4h6a2,2,0,1,0,0-4H42v-8A2,2,0,0,0,41,39.3Z"/><path d="M46,69V59a2,2,0,0,0-2-2H36a2,2,0,0,0-2,2V69a2,2,0,0,0,2,2h8A2,2,0,0,0,46,69Zm-4-2H38V61h4Z"/><path d="M57,3.33a2,2,0,0,0-2,.05l-4,2.49a2,2,0,1,0,2.12,3.39L54,8.67v4.4H53a2,2,0,1,0,0,4h6a2,2,0,1,0,0-4H58v-8A2,2,0,0,0,57,3.33Z"/><path d="M62,23.06a2,2,0,0,0-2-2H52a2,2,0,0,0-2,2v10a2,2,0,0,0,2,2h8a2,2,0,0,0,2-2Zm-4,8H54v-6h4Z"/><path d="M57,39.3a2,2,0,0,0-2,.05l-4,2.49a2,2,0,1,0,2.12,3.39l.94-.59V49H53a2,2,0,1,0,0,4h6a2,2,0,1,0,0-4H58v-8A2,2,0,0,0,57,39.3Z"/><path d="M73,39.3a2,2,0,0,0-2,.05l-4,2.49a2,2,0,1,0,2.12,3.39l.94-.59V49H69a2,2,0,1,0,0,4h6a2,2,0,1,0,0-4H74v-8A2,2,0,0,0,73,39.3Z"/><path d="M82,69a2,2,0,0,0,2,2h8a2,2,0,0,0,2-2V59a2,2,0,0,0-2-2H84a2,2,0,0,0-2,2Zm4-8h4v6H86Z"/><path d="M101,13.07a2,2,0,1,0,0,4h6a2,2,0,1,0,0-4h-1v-8a2,2,0,0,0-3.06-1.7l-4,2.49a2,2,0,1,0,2.12,3.39l.94-.59v4.4Z"/><path d="M121,3.33a2,2,0,0,0-2,.05l-4,2.49a2,2,0,1,0,2.12,3.39l.94-.59v4.4h-1a2,2,0,1,0,0,4h6a2,2,0,1,0,0-4h-1v-8A2,2,0,0,0,121,3.33Z"/><path d="M13,87a2,2,0,0,0-2-2H10V77a2,2,0,0,0-3.06-1.7l-4,2.49a2,2,0,1,0,2.12,3.39L6,80.63V85H5a2,2,0,1,0,0,4h6A2,2,0,0,0,13,87Z"/><path d="M21,85a2,2,0,1,0,0,4h6a2,2,0,1,0,0-4H26V77a2,2,0,0,0-3.06-1.7l-4,2.49a2,2,0,1,0,2.12,3.39l.94-.59V85Z"/><path d="M37,85a2,2,0,1,0,0,4h6a2,2,0,1,0,0-4H42V77a2,2,0,0,0-3.06-1.7l-4,2.49a2,2,0,1,0,2.12,3.39l.94-.59V85Z"/><path d="M42,103h-.49l-6.27,3.85A2,2,0,0,0,36,107h8a2,2,0,0,0,2-2v-4.75l-4,2.45Z"/><path d="M50,69a2,2,0,0,0,.52,1.33A17.15,17.15,0,0,1,61,66.79c.34,0,.67,0,1,.05V59a2,2,0,0,0-2-2H52a2,2,0,0,0-2,2Zm4-8h4v6H54Z"/><path d="M66,67.53A17.22,17.22,0,0,1,72.3,71H76a2,2,0,0,0,2-2V59a2,2,0,0,0-2-2H68a2,2,0,0,0-2,2ZM70,61h4v6H70Z"/><path d="M58,101v2H54V99.77a17.28,17.28,0,0,1-4-2.47V105a2,2,0,0,0,2,2h8a2,2,0,0,0,2-2v-3.8c-.33,0-.66.05-1,.05A17.24,17.24,0,0,1,58,101Z"/><path d="M124,93h-3.8c0,.33.05.66.05,1a17.2,17.2,0,0,1-.28,3h2v6h-4v-.51a17.33,17.33,0,0,1-3.22,4.08A2,2,0,0,0,116,107h8a2,2,0,0,0,2-2V95A2,2,0,0,0,124,93Z"/><path d="M59,121H58v-8a2,2,0,0,0-3.06-1.7l-4,2.49a2,2,0,1,0,2.12,3.39l.94-.59V121H53a2,2,0,1,0,0,4h6a2,2,0,1,0,0-4Z"/><path d="M75,121H74v-8a2,2,0,0,0-3.06-1.7l-4,2.49a2,2,0,1,0,2.12,3.39l.94-.59V121H69a2,2,0,1,0,0,4h6a2,2,0,1,0,0-4Z"/><path d="M91,121H90v-8a2,2,0,0,0-3.06-1.7l-4,2.49a2,2,0,1,0,2.12,3.39l.94-.59V121H85a2,2,0,1,0,0,4h6a2,2,0,1,0,0-4Z"/><path d="M107,121h-1v-8a2,2,0,0,0-3.06-1.7l-4,2.49a2,2,0,1,0,2.12,3.39l.94-.59V121h-1a2,2,0,1,0,0,4h6a2,2,0,1,0,0-4Z"/><path d="M123,121h-1v-8a2,2,0,0,0-3.06-1.7l-4,2.49a2,2,0,1,0,2.12,3.39l.94-.59V121h-1a2,2,0,1,0,0,4h6a2,2,0,1,0,0-4Z"/><path d="M2,95v1.33A21.12,21.12,0,0,1,6.24,93H4A2,2,0,0,0,2,95Z"/><path d="M28,93h-.24a21.08,21.08,0,0,1,2.16,1.48A2,2,0,0,0,28,93Z"/><path d="M43,121H42v-8a2,2,0,0,0-3.06-1.7l-1,.62a20.89,20.89,0,0,1-.88,5.26l.93-.58V121H37a2,2,0,1,0,0,4h6a2,2,0,1,0,0-4Z"/><path d="M90,84.76V77a2,2,0,0,0-3.06-1.7l-4,2.49a2,2,0,1,0,2.12,3.39l.94-.59v3.18Z"/><path d="M86,97c-.05-.3-.09-.6-.12-.9L82,95.19V105a2,2,0,0,0,2,2h7.7a17.35,17.35,0,0,1-3.39-4H86V97Z"/><path d="M75.3,93.59a17.31,17.31,0,0,1-3,3.42H74v6H70V98.71a17.15,17.15,0,0,1-4,1.82V105a2,2,0,0,0,2,2h8a2,2,0,0,0,2-2V95a2,2,0,0,0-.18-.83Z"/><path d="M110,25.09v-2a2,2,0,0,0-2-2h-8a2,2,0,0,0-2,2v.11l3.76,4.06.24-.11V25.06h4v.62A20.65,20.65,0,0,1,110,25.09Z"/><path d="M126,31.39V23.06a2,2,0,0,0-2-2h-8a2,2,0,0,0-2,2V25.3a20.8,20.8,0,0,1,4,1V25.06h4V28.2A21.12,21.12,0,0,1,126,31.39Z"/><path d="M100.75,71l1-6.16A21.15,21.15,0,0,1,98,62.49V69a2,2,0,0,0,2,2Z"/><path d="M122,67h-4V65.8a20.85,20.85,0,0,1-4,1V69a2,2,0,0,0,2,2h8a2,2,0,0,0,2-2V60.68a21.11,21.11,0,0,1-4,3.2Z"/><path d="M85,49a2,2,0,1,0,0,4h6l.21,0a20.7,20.7,0,0,1-1-4H90v-8a2,2,0,0,0-3.06-1.7l-4,2.49a2,2,0,1,0,2.12,3.39l.94-.59V49Z"/><path d="M66,22.73a2,2,0,0,0,0,.33v10a2,2,0,0,0,2,2h8a2,2,0,0,0,2-2V29.93a16.84,16.84,0,0,1-4-1v2.11H70V26.78A17.12,17.12,0,0,1,66,22.73Z"/><path d="M82,29.93v3.13a2,2,0,0,0,2,2h8a2,2,0,0,0,.57-.09l-.88-1-2.73-3H86V28.94A16.86,16.86,0,0,1,82,29.93Z"/><path d="M111,29.06a16.89,16.89,0,0,0-10,3.26L90.45,20.89a13.1,13.1,0,1,0-2.86,2.8L98.08,35a16.95,16.95,0,0,0,8.17,27.32l-3.07,18.44H103A13.26,13.26,0,0,0,90.73,89L74.2,85.11a9.75,9.75,0,0,0,0-1.08,13.25,13.25,0,1,0-25.47,5.14L30.32,100.49a17.08,17.08,0,1,0,2.1,3.41L50.89,92.58A13.25,13.25,0,0,0,73.28,89l16.53,3.93c0,.36-.06.72-.06,1.09a13.25,13.25,0,1,0,17.37-12.58L110.2,63c.27,0,.53,0,.8,0a17,17,0,1,0,0-34ZM80,22.14a9.07,9.07,0,1,1,9.08-9.07A9.07,9.07,0,0,1,80,22.14ZM17,124a13,13,0,1,1,13-13A13,13,0,0,1,17,124ZM70.25,84.17a9.31,9.31,0,1,1,0-.14Zm42,9.85A9.25,9.25,0,1,1,103,84.78,9.25,9.25,0,0,1,112.25,94ZM111,59a13,13,0,1,1,13-13A13,13,0,0,1,111,59Z"/><path d="M121,75.28a2,2,0,0,0-2,.05l-4,2.49a2,2,0,1,0,2.12,3.39l.94-.59V85h-.31a17.12,17.12,0,0,1,1.82,4H123a2,2,0,1,0,0-4h-1V77A2,2,0,0,0,121,75.28Z"/><text x="0" y="143" fill="#000000" font-size="5px" font-weight="bold" font-family="'Helvetica Neue', Helvetica, Arial-Unicode, Arial, Sans-serif">Created by priyanka</text><text x="0" y="148" fill="#000000" font-size="5px" font-weight="bold" font-family="'Helvetica Neue', Helvetica, Arial-Unicode, Arial, Sans-serif">from the Noun Project</text></svg>