<svg width="70" height="52" viewBox="0 0 70 52" fill="none" xmlns="http://www.w3.org/2000/svg">
<path d="M68 12.9V5.7C68 2.9 65.8 0.699997 63 0.699997H5C2.2 0.699997 0 2.9 0 5.7V44.3C0 46.3 1.2 48.1 3 48.9V49.3V51.3H5H7H9H11H13H15H17V49.3H19.2V51.3H21.2H31.4H33.4V49.3H36.5V49.4V51.4H38.5H42.6H44.6V49.4V49.3H62.9C65.7 49.3 67.9 47.1 67.9 44.3H68H70V42.3V32.1V30.1H68V25H70V23V14.9V12.9H68ZM21.2 49.3V47.3V41.2H31.4V47.3V49.3H21.2ZM42.6 49.4H38.5V49.3V47.3V41.2H42.6V47.3V49.4ZM68 42.3H65.9H54.8V32.1H66H68V42.3ZM66 30.1H54.8H52.8V32.1V42.3V44.3H54.8H65.9C65.9 45.9 64.6 47.3 62.9 47.3H44.6V41.2V39.2H42.6H38.5H36.5V41.2V47.3H33.4V41.2V39.2H31.4H21.2H19.2V41.2V47.3H15V49.3H13V47.3H11V49.3H9V47.3H7V49.3H5V47.3C3.4 47.3 2 46 2 44.3V5.7C2 4.1 3.3 2.7 5 2.7H63C64.6 2.7 66 4 66 5.7V12.9H56.8H54.8V14.9V23V25H56.8H66V30.1ZM68 23H66H56.8V14.9H66H68V23Z" fill="white"/>
<path d="M16.3 33.8C16.8523 33.8 17.3 33.3523 17.3 32.8C17.3 32.2477 16.8523 31.8 16.3 31.8C15.7477 31.8 15.3 32.2477 15.3 32.8C15.3 33.3523 15.7477 33.8 16.3 33.8Z" fill="white"/>
<path d="M9 15.5H5V18.5H9V15.5Z" fill="white"/>
<path d="M9 34.7H7V32.6H9V30.6H7V28.5H9V26.5H7V24.5H9V22.5H5V36.8H9V34.7Z" fill="white"/>
<path d="M7.10001 44.3C8.20458 44.3 9.10001 43.4046 9.10001 42.3C9.10001 41.1954 8.20458 40.3 7.10001 40.3C5.99544 40.3 5.10001 41.1954 5.10001 42.3C5.10001 43.4046 5.99544 44.3 7.10001 44.3Z" fill="white"/>
<path d="M7.10001 5.79999C6.00001 5.79999 5.10001 6.69999 5.10001 7.79999C5.10001 8.89999 6.00001 9.79999 7.10001 9.79999C8.20001 9.79999 9.10001 8.79999 9.10001 7.79999C9.10001 6.69999 8.20001 5.79999 7.10001 5.79999Z" fill="white"/>
<path d="M34.9 4.7H32.9V6.7H34.9V4.7Z" fill="white"/>
<path d="M34.9 8.7H32.9V10.7H34.9V8.7Z" fill="white"/>
<path d="M30.9 4.7H28.9V6.7H30.9V4.7Z" fill="white"/>
<path d="M14.9 4.7H12.9V6.7H14.9V4.7Z" fill="white"/>
<path d="M14.9 8.7H12.9V10.7H14.9V8.7Z" fill="white"/>
<path d="M16.2 15.5H12.2V17.6H14.2V19.6H12.2V21.7H14.2V23.7H12.2V25.6H16.2V15.5Z" fill="white"/>
<path d="M12.2 36.8H20.3V28.7H12.2C12.2 28.7 12.2 36.8 12.2 36.8ZM14.2 30.7H18.3V34.8H14.2C14.2 34.8 14.2 30.7 14.2 30.7Z" fill="white"/>
<path d="M18.9 8.7H16.9V10.7H18.9V8.7Z" fill="white"/>
<path d="M18.9 4.7H16.9V6.7H18.9V4.7Z" fill="white"/>
<path d="M22.9 8.7H20.9V10.7H22.9V8.7Z" fill="white"/>
<path d="M22.9 4.7H20.9V6.7H22.9V4.7Z" fill="white"/>
<path d="M26.9 8.7H24.9V10.7H26.9V8.7Z" fill="white"/>
<path d="M26.9 4.7H24.9V6.7H26.9V4.7Z" fill="white"/>
<path d="M30.9 8.7H28.9V10.7H30.9V8.7Z" fill="white"/>
<path d="M29.4 45.3H27.4V47.3H29.4V45.3Z" fill="white"/>
<path d="M31.5 15.5H30.7L30.1 16.1L28.1 18.1L27.5 18.7V19.5V26.6V28.6H29.5H38.6H40.6V26.6V17.5V15.5H38.6H31.5ZM38.6 26.6H29.5V19.5L31.5 17.5H38.6V26.6Z" fill="white"/>
<path d="M38.9 8.7H36.9V10.7H38.9V8.7Z" fill="white"/>
<path d="M38.9 4.7H36.9V6.7H38.9V4.7Z" fill="white"/>
<path d="M42.9 8.7H40.9V10.7H42.9V8.7Z" fill="white"/>
<path d="M42.9 4.7H40.9V6.7H42.9V4.7Z" fill="white"/>
<path d="M48.7 44.3C49.8046 44.3 50.7 43.4046 50.7 42.3C50.7 41.1954 49.8046 40.3 48.7 40.3C47.5954 40.3 46.7 41.1954 46.7 42.3C46.7 43.4046 47.5954 44.3 48.7 44.3Z" fill="white"/>
<path d="M48.7 5.79999C47.6 5.79999 46.7 6.69999 46.7 7.79999C46.7 8.89999 47.6 9.79999 48.7 9.79999C49.8 9.79999 50.7 8.79999 50.7 7.79999C50.7 6.69999 49.8 5.79999 48.7 5.79999Z" fill="white"/>
<path d="M61.5 20L63.3 20.8V19.8L62.5 19.1V18.8L63.3 18.1V17.1L61.5 17.9V20Z" fill="white"/>
<path d="M60.5 38.3L62.3 39.1V38.1L61.5 37.4V37L62.3 36.4V35.4L60.5 36.2V38.3Z" fill="white"/>
</svg>
