<svg xmlns="http://www.w3.org/2000/svg" data-name="Ebene 1" viewBox="0 0 100 125" x="0px" y="0px"><title>Unbenannt-2</title><path d="M65.19,52.53H62.78V47.28a14.78,14.78,0,0,0-29.56,0v5.25H30.81a1,1,0,0,0-1,1V84a1,1,0,0,0,1,1H65.19a1,1,0,0,0,1-1V53.53A1,1,0,0,0,65.19,52.53Zm-29-5.25a11.78,11.78,0,0,1,23.56,0v5.25H36.22ZM64.19,83H31.81V54.53H64.19Z"/><path d="M45.24,67.59a2.76,2.76,0,1,0,5-1.62,3.34,3.34,0,1,0-4.45,0A2.75,2.75,0,0,0,45.24,67.59ZM48,62.15a1.35,1.35,0,0,1,1.34,1.34,1.33,1.33,0,0,1-.67,1.15,1,1,0,0,0-.5.86v.78a1,1,0,0,0,.33.74.76.76,0,1,1-1,0,1,1,0,0,0,.33-.74v-.78a1,1,0,0,0-.5-.86,1.33,1.33,0,0,1-.67-1.15A1.35,1.35,0,0,1,48,62.15Z"/><path d="M58.41,15.12A1,1,0,1,0,57.89,17,30.19,30.19,0,0,1,77.75,34.56a1,1,0,1,0,1.85-.76A32.2,32.2,0,0,0,58.41,15.12Z"/><path d="M86.24,30.79A38.1,38.1,0,0,0,60.6,8.23a1,1,0,0,0-.5,1.94A36.09,36.09,0,0,1,84.38,31.53a1,1,0,0,0,1.86-.75Z"/><path d="M55.88,23.23a1,1,0,1,0-.6,1.91,23.92,23.92,0,0,1,14.62,13,1,1,0,1,0,1.83-.82A25.92,25.92,0,0,0,55.88,23.23Z"/><text x="0" y="115" fill="#000000" font-size="5px" font-weight="bold" font-family="'Helvetica Neue', Helvetica, Arial-Unicode, Arial, Sans-serif">Created by Jessica Gelzinus</text><text x="0" y="120" fill="#000000" font-size="5px" font-weight="bold" font-family="'Helvetica Neue', Helvetica, Arial-Unicode, Arial, Sans-serif">from the Noun Project</text></svg>