<svg xmlns="http://www.w3.org/2000/svg" data-name="Ebene 1" viewBox="0 0 100 125" x="0px" y="0px"><title>Unbenannt-2</title><path d="M59.78,40c-.3-.12-7.36-2.91-11.82-1.29C45,39.77,42.46,43,41,45.21V42a1,1,0,0,0-2,0v9.69C37.33,50.33,32.86,47,29,47c-4.75,0-10.43,5-10.67,5.26a1,1,0,0,0,0,1.49C18.57,54,24.25,59,29,59c3.86,0,8.33-3.33,10-4.69V61H29a2,2,0,0,0-2,2v7.92A12.1,12.1,0,0,0,39.08,83h1.83A12.1,12.1,0,0,0,53,70.92V63a2,2,0,0,0-2-2H41V49a25.45,25.45,0,0,0,7.78,1.52A9.68,9.68,0,0,0,52.06,50c4.46-1.62,8.08-8.3,8.23-8.59a1,1,0,0,0-.51-1.4ZM51,70.92A10.1,10.1,0,0,1,40.92,81H39.08A10.1,10.1,0,0,1,29,70.92V63H51ZM20.56,53c2-1.55,5.64-4,8.44-4,2.36,0,5.17,1.65,7.09,3H29a1,1,0,0,0,0,2h7.1c-2,1.43-4.85,3-7.1,3C26,57,22.25,54.33,20.56,53Zm30.82-4.9c-2.22.81-5.42.22-7.69-.39l6.66-2.42a1,1,0,1,0-.68-1.88L43,45.83c1.43-2,3.53-4.48,5.64-5.25,2.82-1,7.26.2,9.3.88C56.63,43.59,54,47.14,51.38,48.1Z"/><path d="M58.41,15.12A1,1,0,0,0,57.89,17,30.19,30.19,0,0,1,77.75,34.56a1,1,0,0,0,.92.62,1,1,0,0,0,.38-.08,1,1,0,0,0,.54-1.31A32.2,32.2,0,0,0,58.41,15.12Z"/><path d="M86.24,30.79A38.09,38.09,0,0,0,60.6,8.23a1,1,0,0,0-.5,1.94A36.09,36.09,0,0,1,84.38,31.53a1,1,0,1,0,1.86-.75Z"/><path d="M55.88,23.23a1,1,0,0,0-.6,1.91,23.92,23.92,0,0,1,14.62,13,1,1,0,1,0,1.83-.82A25.92,25.92,0,0,0,55.88,23.23Z"/><text x="0" y="115" fill="#000000" font-size="5px" font-weight="bold" font-family="'Helvetica Neue', Helvetica, Arial-Unicode, Arial, Sans-serif">Created by Jessica Gelzinus</text><text x="0" y="120" fill="#000000" font-size="5px" font-weight="bold" font-family="'Helvetica Neue', Helvetica, Arial-Unicode, Arial, Sans-serif">from the Noun Project</text></svg>