<svg width="80" height="58" viewBox="0 0 80 58" fill="none" xmlns="http://www.w3.org/2000/svg">
<path d="M51.41 7.12C51.1834 7.10932 50.96 7.17598 50.7763 7.30905C50.5926 7.44212 50.4596 7.63368 50.3991 7.8523C50.3386 8.07092 50.3543 8.3036 50.4435 8.51215C50.5327 8.7207 50.6901 8.89273 50.89 9C55.3182 10.223 59.4089 12.4405 62.8505 15.4835C66.2921 18.5266 68.9939 22.3149 70.75 26.56C70.7999 26.6815 70.8732 26.7919 70.9658 26.8851C71.0584 26.9782 71.1684 27.0522 71.2896 27.1028C71.4108 27.1534 71.5408 27.1796 71.6721 27.18C71.8034 27.1804 71.9335 27.1549 72.055 27.105C72.1765 27.0551 72.2869 26.9818 72.3801 26.8892C72.4732 26.7966 72.5472 26.6866 72.5978 26.5654C72.6484 26.4442 72.6746 26.3142 72.675 26.1829C72.6754 26.0516 72.6499 25.9215 72.6 25.8C70.7201 21.2806 67.8346 17.2492 64.1628 14.0123C60.491 10.7754 56.1295 8.41827 51.41 7.12V7.12Z" fill="white"/>
<path d="M79.24 22.79C77.0169 17.2935 73.5414 12.3919 69.0901 8.47533C64.6389 4.55876 59.3347 1.7354 53.6 0.230001C53.4726 0.197171 53.34 0.189752 53.2098 0.208168C53.0795 0.226584 52.9542 0.270474 52.8409 0.337332C52.7276 0.40419 52.6286 0.492708 52.5495 0.59783C52.4704 0.702952 52.4128 0.82262 52.38 0.950003C52.3472 1.07738 52.3398 1.20999 52.3582 1.34023C52.3766 1.47048 52.4205 1.59583 52.4873 1.70912C52.5542 1.82241 52.6427 1.92142 52.7478 2.00049C52.8529 2.07957 52.9726 2.13717 53.1 2.17C58.5295 3.59667 63.5514 6.2703 67.7663 9.97833C71.9812 13.6864 75.273 18.3265 77.38 23.53C77.4795 23.7767 77.6728 23.9737 77.9176 24.0778C78.1623 24.1819 78.4383 24.1845 78.685 24.085C78.9317 23.9855 79.1287 23.7922 79.2328 23.5474C79.3369 23.3027 79.3395 23.0267 79.24 22.78V22.79Z" fill="white"/>
<path d="M48.88 15.23C48.7546 15.1906 48.6226 15.1763 48.4917 15.1879C48.3608 15.1995 48.2334 15.2368 48.1168 15.2976C48.0003 15.3584 47.8969 15.4416 47.8125 15.5424C47.7281 15.6432 47.6644 15.7596 47.625 15.885C47.5856 16.0104 47.5713 16.1424 47.5829 16.2733C47.5945 16.4042 47.6318 16.5316 47.6926 16.6482C47.7534 16.7647 47.8366 16.8681 47.9374 16.9525C48.0382 17.0369 48.1546 17.1006 48.28 17.14C51.4955 18.1541 54.4602 19.8366 56.9798 22.077C59.4994 24.3174 61.5169 27.0651 62.9 30.14C63.0087 30.3827 63.2094 30.5722 63.4579 30.6669C63.7064 30.7616 63.9823 30.7537 64.225 30.645C64.4677 30.5363 64.6572 30.3356 64.7519 30.0871C64.8466 29.8386 64.8387 29.5627 64.73 29.32C63.2303 25.987 61.0429 23.0088 58.3113 20.5805C55.5798 18.1523 52.3657 16.3289 48.88 15.23V15.23Z" fill="white"/>
<path d="M57.51 37.53L50.13 36.27C49.261 36.1299 48.4222 35.8425 47.65 35.42C46.725 34.8505 45.8664 34.1797 45.09 33.42C43.7693 32.1076 42.1888 31.0858 40.45 30.42C39.7026 30.1516 38.9141 30.0163 38.12 30.02H30.5C28.0091 30.0136 25.5725 30.7481 23.5 32.13L17.5 36.13C15.6631 37.3513 13.5059 38.002 11.3 38C8.30387 38.0027 5.43121 39.194 3.31262 41.3126C1.19403 43.4312 0.00264793 46.3039 0 49.3C0 50.2813 0.38982 51.2224 1.0837 51.9163C1.77759 52.6102 2.7187 53 3.7 53H6.09C6.33361 54.3906 7.05975 55.6507 8.14072 56.5588C9.22169 57.4669 10.5882 57.9647 12 57.9647C13.4118 57.9647 14.7783 57.4669 15.8593 56.5588C16.9402 55.6507 17.6664 54.3906 17.91 53H41.09C41.3336 54.3906 42.0598 55.6507 43.1407 56.5588C44.2217 57.4669 45.5882 57.9647 47 57.9647C48.4118 57.9647 49.7783 57.4669 50.8593 56.5588C51.9402 55.6507 52.6664 54.3906 52.91 53H56C57.3261 53 58.5979 52.4732 59.5355 51.5355C60.4732 50.5979 61 49.3261 61 48V41.71C61.0016 40.7144 60.6528 39.75 60.0147 38.9857C59.3766 38.2214 58.4899 37.7061 57.51 37.53V37.53ZM12 56C11.2089 56 10.4355 55.7654 9.77772 55.3259C9.11992 54.8864 8.60723 54.2616 8.30448 53.5307C8.00173 52.7998 7.92252 51.9956 8.07686 51.2196C8.2312 50.4437 8.61216 49.731 9.17157 49.1716C9.73098 48.6122 10.4437 48.2312 11.2196 48.0769C11.9956 47.9225 12.7998 48.0017 13.5307 48.3045C14.2616 48.6072 14.8864 49.1199 15.3259 49.7777C15.7654 50.4355 16 51.2089 16 52C16 53.0609 15.5786 54.0783 14.8284 54.8284C14.0783 55.5786 13.0609 56 12 56ZM47 56C46.2089 56 45.4355 55.7654 44.7777 55.3259C44.1199 54.8864 43.6072 54.2616 43.3045 53.5307C43.0017 52.7998 42.9225 51.9956 43.0769 51.2196C43.2312 50.4437 43.6122 49.731 44.1716 49.1716C44.731 48.6122 45.4437 48.2312 46.2196 48.0769C46.9956 47.9225 47.7998 48.0017 48.5307 48.3045C49.2616 48.6072 49.8864 49.1199 50.3259 49.7777C50.7654 50.4355 51 51.2089 51 52C51 53.0609 50.5786 54.0783 49.8284 54.8284C49.0783 55.5786 48.0609 56 47 56Z" fill="white"/>
</svg>
