<svg xmlns="http://www.w3.org/2000/svg" data-name="Ebene 1" viewBox="0 0 100 125" x="0px" y="0px"><title>Unbenannt-2</title><path d="M58.41,15.12A1,1,0,1,0,57.89,17,30.19,30.19,0,0,1,77.75,34.56a1,1,0,0,0,.92.62,1,1,0,0,0,.38-.08,1,1,0,0,0,.54-1.31A32.2,32.2,0,0,0,58.41,15.12Z"/><path d="M86.24,30.79A38.1,38.1,0,0,0,60.6,8.23a1,1,0,0,0-.5,1.94A36.09,36.09,0,0,1,84.38,31.53a1,1,0,0,0,1.86-.75Z"/><path d="M55.88,23.23a1,1,0,1,0-.6,1.91,23.92,23.92,0,0,1,14.62,13,1,1,0,1,0,1.83-.82A25.93,25.93,0,0,0,55.88,23.23Z"/><path d="M67.59,51.46l-21-15.27a1,1,0,0,0-1.18,0l-21,15.27a1,1,0,0,0-.41.81V79a1,1,0,0,0,1,1H67a1,1,0,0,0,1-1V52.27A1,1,0,0,0,67.59,51.46ZM66,78H26V52.78L46,38.24,66,52.78Z"/><text x="0" y="115" fill="#000000" font-size="5px" font-weight="bold" font-family="'Helvetica Neue', Helvetica, Arial-Unicode, Arial, Sans-serif">Created by Jessica Gelzinus</text><text x="0" y="120" fill="#000000" font-size="5px" font-weight="bold" font-family="'Helvetica Neue', Helvetica, Arial-Unicode, Arial, Sans-serif">from the Noun Project</text></svg>