<svg width="46" height="82" viewBox="0 0 46 82" fill="none" xmlns="http://www.w3.org/2000/svg">
<path d="M17.41 7.12C17.2778 7.04902 17.1312 7.00872 16.9813 7.00209C16.8313 6.99545 16.6818 7.02266 16.5438 7.08168C16.4058 7.14071 16.2829 7.23004 16.1841 7.34305C16.0854 7.45607 16.0133 7.58986 15.9733 7.73452C15.9333 7.87918 15.9263 8.03099 15.953 8.1787C15.9796 8.3264 16.0392 8.46621 16.1273 8.58776C16.2153 8.70931 16.3296 8.80948 16.4616 8.88085C16.5937 8.95221 16.7401 8.99293 16.89 9C21.3182 10.223 25.4089 12.4405 28.8505 15.4835C32.2921 18.5266 34.9939 22.3149 36.75 26.56C36.7999 26.6815 36.8732 26.7919 36.9658 26.8851C37.0584 26.9782 37.1684 27.0522 37.2896 27.1028C37.4108 27.1534 37.5408 27.1796 37.6721 27.18C37.8034 27.1804 37.9335 27.1549 38.055 27.105C38.1765 27.0551 38.2869 26.9818 38.3801 26.8892C38.4732 26.7966 38.5472 26.6866 38.5978 26.5654C38.6484 26.4442 38.6746 26.3142 38.675 26.1829C38.6754 26.0516 38.6499 25.9215 38.6 25.8C36.7201 21.2806 33.8346 17.2492 30.1628 14.0123C26.491 10.7754 22.1295 8.41828 17.41 7.12V7.12Z" fill="white"/>
<path d="M45.24 22.79C43.0169 17.2935 39.5414 12.3919 35.0901 8.47533C30.6389 4.55876 25.3347 1.7354 19.6 0.230001C19.3427 0.163697 19.0697 0.202305 18.8409 0.337331C18.6121 0.472357 18.4463 0.692741 18.38 0.950001C18.3137 1.20726 18.3523 1.48032 18.4873 1.70912C18.6224 1.93791 18.8427 2.1037 19.1 2.17C24.5295 3.59667 29.5514 6.2703 33.7663 9.97833C37.9812 13.6864 41.273 18.3266 43.38 23.53C43.4795 23.7767 43.6728 23.9737 43.9176 24.0778C44.1623 24.1819 44.4383 24.1845 44.685 24.085C44.9316 23.9855 45.1287 23.7922 45.2328 23.5474C45.3369 23.3027 45.3395 23.0267 45.24 22.78V22.79Z" fill="white"/>
<path d="M14.88 15.23C14.7546 15.1906 14.6226 15.1763 14.4917 15.1879C14.3608 15.1995 14.2334 15.2368 14.1168 15.2976C14.0003 15.3584 13.8969 15.4416 13.8125 15.5424C13.7281 15.6432 13.6644 15.7596 13.625 15.885C13.5856 16.0104 13.5713 16.1424 13.5829 16.2733C13.5945 16.4042 13.6318 16.5316 13.6926 16.6482C13.7534 16.7647 13.8366 16.8681 13.9374 16.9525C14.0382 17.0369 14.1546 17.1006 14.28 17.14C17.4955 18.1541 20.4602 19.8366 22.9798 22.077C25.4994 24.3174 27.5169 27.0651 28.9 30.14C28.9538 30.2602 29.0308 30.3685 29.1265 30.4589C29.2223 30.5494 29.3349 30.62 29.4579 30.6669C29.5809 30.7138 29.712 30.736 29.8436 30.7323C29.9752 30.7285 30.1048 30.6988 30.225 30.645C30.3452 30.5912 30.4535 30.5142 30.5439 30.4184C30.6343 30.3227 30.705 30.2101 30.7519 30.0871C30.7988 29.9641 30.821 29.833 30.8172 29.7014C30.8135 29.5697 30.7838 29.4402 30.73 29.32C29.2303 25.987 27.0429 23.0088 24.3113 20.5805C21.5798 18.1523 18.3657 16.3289 14.88 15.23V15.23Z" fill="white"/>
<path d="M19 60.79V34.5C19 32.5109 18.2098 30.6032 16.8033 29.1967C15.3968 27.7902 13.4891 27 11.5 27C9.51088 27 7.60322 27.7902 6.1967 29.1967C4.79018 30.6032 4 32.5109 4 34.5V60.79C2.2201 62.3213 0.951552 64.3607 0.364835 66.6341C-0.221881 68.9076 -0.0986545 71.3061 0.717962 73.5075C1.53458 75.7089 3.00545 77.6075 4.93291 78.9483C6.86037 80.2891 9.15206 81.0078 11.5 81.0078C13.8479 81.0078 16.1396 80.2891 18.0671 78.9483C19.9946 77.6075 21.4654 75.7089 22.282 73.5075C23.0987 71.3061 23.2219 68.9076 22.6352 66.6341C22.0485 64.3607 20.7799 62.3213 19 60.79ZM11.5 79C9.51308 79.0165 7.5711 78.4089 5.9479 77.2629C4.32469 76.1169 3.10214 74.4903 2.45263 72.6124C1.80312 70.7346 1.75942 68.7003 2.32768 66.7963C2.89595 64.8923 4.04751 63.2147 5.62 62C5.73785 61.9069 5.83322 61.7884 5.899 61.6534C5.96479 61.5183 5.99931 61.3702 6 61.22V34.5C6 33.0413 6.57946 31.6424 7.61091 30.6109C8.64236 29.5795 10.0413 29 11.5 29C12.9587 29 14.3576 29.5795 15.3891 30.6109C16.4205 31.6424 17 33.0413 17 34.5V39H16C15.7348 39 15.4804 39.1054 15.2929 39.2929C15.1054 39.4804 15 39.7348 15 40C15 40.2652 15.1054 40.5196 15.2929 40.7071C15.4804 40.8946 15.7348 41 16 41H17V44H16C15.7348 44 15.4804 44.1054 15.2929 44.2929C15.1054 44.4804 15 44.7348 15 45C15 45.2652 15.1054 45.5196 15.2929 45.7071C15.4804 45.8946 15.7348 46 16 46H17V49H16C15.7348 49 15.4804 49.1054 15.2929 49.2929C15.1054 49.4804 15 49.7348 15 50C15 50.2652 15.1054 50.5196 15.2929 50.7071C15.4804 50.8946 15.7348 51 16 51H17V54H16C15.7348 54 15.4804 54.1054 15.2929 54.2929C15.1054 54.4804 15 54.7348 15 55C15 55.2652 15.1054 55.5196 15.2929 55.7071C15.4804 55.8946 15.7348 56 16 56H17V61.26C17.0007 61.4102 17.0352 61.5583 17.101 61.6934C17.1668 61.8284 17.2621 61.9469 17.38 62.04C18.9362 63.2593 20.0727 64.9342 20.6308 66.8307C21.189 68.7273 21.1409 70.7508 20.4933 72.6187C19.8457 74.4866 18.631 76.1056 17.0186 77.2496C15.4063 78.3937 13.477 79.0056 11.5 79V79Z" fill="white"/>
<path d="M14 63.5V34.5C14 33.837 13.7366 33.2011 13.2678 32.7322C12.7989 32.2634 12.163 32 11.5 32C10.837 32 10.2011 32.2634 9.73223 32.7322C9.26339 33.2011 9 33.837 9 34.5V63.5C7.61294 64.0779 6.46897 65.1186 5.76271 66.4449C5.05645 67.7712 4.83153 69.3013 5.12622 70.7748C5.42091 72.2482 6.21701 73.5741 7.37907 74.5267C8.54112 75.4794 9.99735 76 11.5 76C13.0026 76 14.4589 75.4794 15.6209 74.5267C16.783 73.5741 17.5791 72.2482 17.8738 70.7748C18.1685 69.3013 17.9435 67.7712 17.2373 66.4449C16.531 65.1186 15.3871 64.0779 14 63.5Z" fill="white"/>
</svg>
