<svg width="57" height="75" viewBox="0 0 57 75" fill="none" xmlns="http://www.w3.org/2000/svg">
<path d="M18 22.66H17.08C13.0258 22.9004 9.18959 24.5759 6.258 27.3866C3.32641 30.1972 1.49088 33.9596 1.08 38C0.845357 40.3441 1.1031 42.7114 1.83669 44.95C2.57029 47.1887 3.76355 49.2494 5.34 51C7.03095 52.8516 7.97826 55.2626 8 57.77V60.5C8 60.7652 8.10535 61.0196 8.29289 61.2071C8.48043 61.3946 8.73478 61.5 9 61.5H9.15L17.76 60.21L27.15 58.8C27.3885 58.7638 27.6058 58.6427 27.762 58.459C27.9182 58.2752 28.0027 58.0412 28 57.8V57.8C27.9938 55.2857 28.9284 52.8601 30.62 51C32.8071 48.5574 34.2411 45.5345 34.7494 42.2954C35.2577 39.0564 34.8185 35.7395 33.4848 32.7444C32.151 29.7493 29.9796 27.2037 27.2322 25.4145C24.4848 23.6253 21.2786 22.6687 18 22.66V22.66ZM29.14 49.66C27.3068 51.6621 26.2008 54.2229 26 56.93L17.43 58.22L10 59.34V57.77C9.98216 54.7648 8.853 51.8724 6.83 49.65C5.44096 48.1123 4.38889 46.301 3.74135 44.3326C3.09382 42.3642 2.86514 40.2821 3.07 38.22C3.41384 34.6486 5.02644 31.3188 7.61522 28.8346C10.204 26.3504 13.5975 24.8764 17.18 24.68H18C20.8922 24.6878 23.7205 25.5315 26.1442 27.1096C28.568 28.6877 30.4838 30.9328 31.661 33.5746C32.8382 36.2165 33.2265 39.1423 32.7792 41.9997C32.332 44.8571 31.0682 47.5243 29.14 49.68V49.66Z" fill="white"/>
<path d="M26.84 59.67L8.84001 62.67C8.57479 62.6912 8.32887 62.8169 8.15633 63.0195C7.9838 63.222 7.89879 63.4848 7.92001 63.75C7.94122 64.0152 8.06693 64.2611 8.26947 64.4337C8.47201 64.6062 8.73479 64.6912 9.00001 64.67H9.17001L27.17 61.67C27.4352 61.6262 27.6722 61.4789 27.8288 61.2604C27.9854 61.042 28.0488 60.7702 28.005 60.505C27.9612 60.2398 27.8139 60.0028 27.5954 59.8462C27.377 59.6896 27.1052 59.6262 26.84 59.67V59.67Z" fill="white"/>
<path d="M26.84 62.67L8.84001 65.67C8.70869 65.6805 8.58072 65.7168 8.46341 65.7767C8.34611 65.8367 8.24176 65.9192 8.15633 66.0195C7.9838 66.222 7.89879 66.4848 7.92001 66.75C7.93051 66.8813 7.96678 67.0093 8.02674 67.1266C8.0867 67.2439 8.16918 67.3482 8.26947 67.4337C8.47201 67.6062 8.73479 67.6912 9.00001 67.67H9.17001L27.17 64.67C27.4352 64.6262 27.6722 64.4789 27.8288 64.2604C27.9854 64.042 28.0488 63.7702 28.005 63.505C27.9612 63.2398 27.8139 63.0028 27.5954 62.8462C27.377 62.6896 27.1052 62.6262 26.84 62.67V62.67Z" fill="white"/>
<path d="M26 65.66C25.7348 65.66 25.4804 65.7654 25.2929 65.9529C25.1054 66.1404 25 66.3948 25 66.66V70L19.29 72.14C18.4263 72.4655 17.4737 72.4655 16.61 72.14L11 69.94V69.66C11 69.3948 10.8946 69.1404 10.7071 68.9529C10.5196 68.7654 10.2652 68.66 10 68.66C9.73478 68.66 9.48043 68.7654 9.29289 68.9529C9.10536 69.1404 9 69.3948 9 69.66V69.94C8.99275 70.3445 9.10835 70.7417 9.33152 71.0791C9.55469 71.4165 9.87494 71.6784 10.25 71.83L16 74C17.2913 74.4734 18.7087 74.4734 20 74L25.72 71.85C26.1039 71.702 26.4328 71.4391 26.6619 71.0973C26.891 70.7555 27.009 70.3514 27 69.94V66.66C27 66.3948 26.8946 66.1404 26.7071 65.9529C26.5196 65.7654 26.2652 65.66 26 65.66Z" fill="white"/>
<path d="M28.41 7.12C28.2777 7.04902 28.1312 7.00872 27.9813 7.00209C27.8313 6.99545 27.6818 7.02266 27.5438 7.08168C27.4058 7.14071 27.2829 7.23004 27.1841 7.34305C27.0853 7.45607 27.0133 7.58986 26.9733 7.73452C26.9332 7.87918 26.9263 8.03099 26.953 8.1787C26.9796 8.3264 27.0392 8.46621 27.1272 8.58776C27.2153 8.70931 27.3296 8.80948 27.4616 8.88085C27.5936 8.95221 27.7401 8.99293 27.89 9C32.3182 10.223 36.4089 12.4405 39.8505 15.4835C43.2921 18.5266 45.9939 22.3149 47.75 26.56C47.7999 26.6815 47.8732 26.7919 47.9658 26.8851C48.0584 26.9782 48.1684 27.0522 48.2896 27.1028C48.4108 27.1534 48.5408 27.1796 48.6721 27.18C48.8034 27.1804 48.9335 27.1549 49.055 27.105C49.1765 27.0551 49.2869 26.9818 49.38 26.8892C49.4732 26.7966 49.5471 26.6866 49.5978 26.5654C49.6484 26.4442 49.6746 26.3142 49.675 26.1829C49.6754 26.0516 49.6499 25.9215 49.6 25.8C47.7201 21.2806 44.8345 17.2492 41.1627 14.0123C37.4909 10.7754 33.1295 8.41828 28.41 7.12V7.12Z" fill="white"/>
<path d="M56.24 22.79C54.0162 17.2939 50.5405 12.3927 46.0893 8.47622C41.6382 4.55974 36.3344 1.73612 30.6 0.230001C30.3427 0.163697 30.0697 0.202305 29.8409 0.337331C29.6121 0.472357 29.4463 0.692741 29.38 0.950001C29.3137 1.20726 29.3523 1.48032 29.4873 1.70912C29.6224 1.93791 29.8427 2.1037 30.1 2.17C35.5295 3.59667 40.5514 6.2703 44.7663 9.97833C48.9812 13.6864 52.273 18.3266 54.38 23.53C54.4795 23.7767 54.6728 23.9737 54.9176 24.0778C55.1623 24.1819 55.4383 24.1845 55.685 24.085C55.9316 23.9855 56.1287 23.7922 56.2328 23.5474C56.3369 23.3027 56.3395 23.0267 56.24 22.78V22.79Z" fill="white"/>
<path d="M25.88 15.23C25.7546 15.1906 25.6226 15.1763 25.4917 15.1879C25.3608 15.1995 25.2334 15.2368 25.1168 15.2976C25.0003 15.3584 24.8969 15.4416 24.8125 15.5424C24.7281 15.6432 24.6644 15.7596 24.625 15.885C24.5856 16.0104 24.5713 16.1424 24.5829 16.2733C24.5945 16.4042 24.6318 16.5316 24.6926 16.6482C24.7534 16.7647 24.8366 16.8681 24.9374 16.9525C25.0382 17.0369 25.1546 17.1006 25.28 17.14C28.4955 18.1541 31.4602 19.8366 33.9798 22.077C36.4994 24.3174 38.5169 27.0651 39.9 30.14C39.9538 30.2602 40.0308 30.3685 40.1265 30.4589C40.2223 30.5494 40.3349 30.62 40.4579 30.6669C40.5809 30.7138 40.712 30.736 40.8436 30.7323C40.9752 30.7285 41.1048 30.6988 41.225 30.645C41.3452 30.5912 41.4535 30.5142 41.5439 30.4184C41.6343 30.3227 41.705 30.2101 41.7519 30.0871C41.7988 29.9641 41.821 29.833 41.8172 29.7014C41.8135 29.5697 41.7838 29.4402 41.73 29.32C40.2308 25.9867 38.0436 23.0081 35.312 20.5798C32.5803 18.1515 29.366 16.3283 25.88 15.23V15.23Z" fill="white"/>
</svg>
