<svg width="63" height="72" viewBox="0 0 63 72" fill="none" xmlns="http://www.w3.org/2000/svg">
<path d="M34.41 7.12C34.2778 7.04902 34.1312 7.00872 33.9813 7.00209C33.8313 6.99545 33.6818 7.02266 33.5438 7.08168C33.4058 7.14071 33.2829 7.23004 33.1841 7.34305C33.0854 7.45607 33.0133 7.58986 32.9733 7.73452C32.9333 7.87918 32.9263 8.03099 32.953 8.1787C32.9796 8.3264 33.0392 8.46621 33.1273 8.58776C33.2153 8.70931 33.3296 8.80948 33.4616 8.88085C33.5937 8.95221 33.7401 8.99293 33.89 9C38.3182 10.223 42.4089 12.4405 45.8505 15.4835C49.2921 18.5266 51.9939 22.3149 53.75 26.56C53.825 26.7426 53.9524 26.8989 54.1161 27.0093C54.2799 27.1196 54.4726 27.179 54.67 27.18C54.8007 27.1784 54.9298 27.1512 55.05 27.1C55.1716 27.0496 55.2821 26.9758 55.3752 26.8826C55.4682 26.7895 55.5419 26.6789 55.592 26.5571C55.6422 26.4354 55.6679 26.305 55.6675 26.1734C55.6672 26.0417 55.6408 25.9114 55.59 25.79C53.7099 21.2735 50.8253 17.2448 47.1554 14.0098C43.4855 10.7748 39.1267 8.41858 34.41 7.12V7.12Z" fill="white"/>
<path d="M62.24 22.79C60.0162 17.2939 56.5405 12.3927 52.0893 8.47622C47.6382 4.55974 42.3344 1.73612 36.6 0.230001C36.3427 0.163697 36.0697 0.202305 35.8409 0.337331C35.6121 0.472357 35.4463 0.692741 35.38 0.950001C35.3137 1.20726 35.3523 1.48032 35.4873 1.70912C35.6224 1.93791 35.8427 2.1037 36.1 2.17C41.5295 3.59667 46.5514 6.2703 50.7663 9.97833C54.9812 13.6864 58.273 18.3266 60.38 23.53C60.4795 23.7767 60.6728 23.9737 60.9176 24.0778C61.1623 24.1819 61.4383 24.1845 61.685 24.085C61.9316 23.9855 62.1287 23.7922 62.2328 23.5474C62.3369 23.3027 62.3395 23.0267 62.24 22.78V22.79Z" fill="white"/>
<path d="M31.88 15.23C31.7546 15.1906 31.6226 15.1763 31.4917 15.1879C31.3608 15.1995 31.2334 15.2368 31.1168 15.2976C31.0003 15.3584 30.8969 15.4416 30.8125 15.5424C30.7281 15.6432 30.6644 15.7596 30.625 15.885C30.5856 16.0104 30.5713 16.1424 30.5829 16.2733C30.5945 16.4042 30.6318 16.5316 30.6926 16.6482C30.7534 16.7647 30.8366 16.8681 30.9374 16.9525C31.0382 17.0369 31.1546 17.1006 31.28 17.14C34.4955 18.1541 37.4602 19.8366 39.9798 22.077C42.4994 24.3174 44.5169 27.0651 45.9 30.14C45.9538 30.2602 46.0308 30.3685 46.1265 30.4589C46.2223 30.5494 46.3349 30.62 46.4579 30.6669C46.5809 30.7138 46.712 30.736 46.8436 30.7323C46.9752 30.7285 47.1048 30.6988 47.225 30.645C47.3452 30.5912 47.4535 30.5142 47.5439 30.4184C47.6343 30.3227 47.705 30.2101 47.7519 30.0871C47.7988 29.9641 47.821 29.833 47.8172 29.7014C47.8135 29.5697 47.7838 29.4402 47.73 29.32C46.2303 25.987 44.0429 23.0088 41.3113 20.5805C38.5798 18.1523 35.3657 16.3289 31.88 15.23V15.23Z" fill="white"/>
<path d="M43.59 43.46L22.59 28.19C22.4187 28.0649 22.2121 27.9974 22 27.9974C21.7879 27.9974 21.5813 28.0649 21.41 28.19L0.410003 43.46C0.282606 43.5531 0.179044 43.675 0.107786 43.8158C0.0365271 43.9566 -0.000405979 44.1122 3.3659e-06 44.27V71C3.3659e-06 71.2652 0.105359 71.5196 0.292896 71.7071C0.480432 71.8946 0.734787 72 1 72H43C43.2652 72 43.5196 71.8946 43.7071 71.7071C43.8946 71.5196 44 71.2652 44 71V44.27C44.0004 44.1122 43.9635 43.9566 43.8922 43.8158C43.821 43.675 43.7174 43.5531 43.59 43.46ZM42 70H2V44.78L22 30.24L42 44.78V70Z" fill="white"/>
</svg>
