<svg xmlns="http://www.w3.org/2000/svg" data-name="Ebene 1" viewBox="0 0 100 125" x="0px" y="0px"><title>Unbenannt-2</title><path d="M65.41,24.12A1,1,0,0,0,64.89,26,30.19,30.19,0,0,1,84.75,43.56a1,1,0,1,0,1.85-.76A32.2,32.2,0,0,0,65.41,24.12Z"/><path d="M93.24,39.79A38.09,38.09,0,0,0,67.6,17.23a1,1,0,1,0-.5,1.94A36.09,36.09,0,0,1,91.38,40.53a1,1,0,0,0,1.86-.75Z"/><path d="M62.88,32.23a1,1,0,1,0-.6,1.91,23.92,23.92,0,0,1,14.62,13,1,1,0,1,0,1.83-.82A25.93,25.93,0,0,0,62.88,32.23Z"/><path d="M71.51,54.53l-7.38-1.26a7.73,7.73,0,0,1-2.48-.85,14.62,14.62,0,0,1-2.56-2,13.36,13.36,0,0,0-4.64-3,6.8,6.8,0,0,0-2.33-.4H44.5a12.56,12.56,0,0,0-7,2.11l-6,4A11.18,11.18,0,0,1,25.3,55,11.31,11.31,0,0,0,14,66.3,3.7,3.7,0,0,0,17.7,70h2.39a6,6,0,0,0,11.82,0H55.09a6,6,0,0,0,11.82,0H70a5,5,0,0,0,5-5V58.71A4.24,4.24,0,0,0,71.51,54.53ZM26,73a4,4,0,1,1,4-4A4,4,0,0,1,26,73Zm35,0a4,4,0,1,1,4-4A4,4,0,0,1,61,73Z"/><text x="0" y="115" fill="#000000" font-size="5px" font-weight="bold" font-family="'Helvetica Neue', Helvetica, Arial-Unicode, Arial, Sans-serif">Created by Jessica Gelzinus</text><text x="0" y="120" fill="#000000" font-size="5px" font-weight="bold" font-family="'Helvetica Neue', Helvetica, Arial-Unicode, Arial, Sans-serif">from the Noun Project</text></svg>