<svg width="58" height="77" viewBox="0 0 58 77" fill="none" xmlns="http://www.w3.org/2000/svg">
<path d="M36.19 44.53H33.78V39.28C33.78 35.3601 32.2228 31.6007 29.451 28.829C26.6792 26.0572 22.9199 24.5 19 24.5C15.0801 24.5 11.3207 26.0572 8.54896 28.829C5.77717 31.6007 4.22 35.3601 4.22 39.28V44.53H1.81C1.54478 44.53 1.29043 44.6354 1.10289 44.8229C0.915356 45.0104 0.809998 45.2648 0.809998 45.53V76C0.809998 76.2652 0.915356 76.5196 1.10289 76.7071C1.29043 76.8946 1.54478 77 1.81 77H36.19C36.4552 77 36.7096 76.8946 36.8971 76.7071C37.0846 76.5196 37.19 76.2652 37.19 76V45.53C37.19 45.2648 37.0846 45.0104 36.8971 44.8229C36.7096 44.6354 36.4552 44.53 36.19 44.53ZM7.19 39.28C7.19 36.1557 8.4311 33.1595 10.6403 30.9503C12.8495 28.7411 15.8457 27.5 18.97 27.5C22.0942 27.5 25.0905 28.7411 27.2997 30.9503C29.5089 33.1595 30.75 36.1557 30.75 39.28V44.53H7.22L7.19 39.28ZM35.19 75H2.81V46.53H35.19V75Z" fill="white"/>
<path d="M16.24 59.59C16.2412 60.0247 16.3451 60.453 16.5431 60.84C16.7412 61.227 17.0279 61.5617 17.3798 61.8169C17.7318 62.0721 18.139 62.2405 18.5684 62.3085C18.9978 62.3765 19.4371 62.3421 19.8507 62.2081C20.2643 62.0741 20.6403 61.8443 20.9482 61.5374C21.2562 61.2305 21.4872 60.8553 21.6227 60.4422C21.7581 60.0291 21.794 59.5899 21.7275 59.1603C21.661 58.7306 21.494 58.3228 21.24 57.97C21.7446 57.5193 22.1005 56.9259 22.2604 56.2684C22.4203 55.611 22.3768 54.9204 22.1355 54.2883C21.8943 53.6561 21.4668 53.1121 20.9095 52.7283C20.3523 52.3445 19.6916 52.139 19.015 52.139C18.3384 52.139 17.6777 52.3445 17.1205 52.7283C16.5632 53.1121 16.1357 53.6561 15.8945 54.2883C15.6532 54.9204 15.6097 55.611 15.7696 56.2684C15.9295 56.9259 16.2854 57.5193 16.79 57.97C16.4391 58.4378 16.2464 59.0053 16.24 59.59V59.59ZM19 54.15C19.3546 54.1526 19.6939 54.2946 19.9446 54.5454C20.1954 54.7961 20.3374 55.1354 20.34 55.49C20.3392 55.7236 20.2768 55.953 20.1592 56.1548C20.0416 56.3567 19.8728 56.5241 19.67 56.64C19.5189 56.7273 19.3932 56.8525 19.3055 57.0034C19.2178 57.1543 19.1711 57.3255 19.17 57.5V58.28C19.1703 58.4195 19.1999 58.5575 19.2567 58.6849C19.3135 58.8124 19.3964 58.9265 19.5 59.02C19.6165 59.1218 19.6992 59.2566 19.737 59.4066C19.7748 59.5566 19.7659 59.7146 19.7115 59.8594C19.6572 60.0042 19.56 60.129 19.4328 60.2171C19.3057 60.3052 19.1547 60.3524 19 60.3524C18.8453 60.3524 18.6943 60.3052 18.5672 60.2171C18.44 60.129 18.3428 60.0042 18.2885 59.8594C18.2341 59.7146 18.2252 59.5566 18.263 59.4066C18.3008 59.2566 18.3835 59.1218 18.5 59.02C18.6036 58.9265 18.6865 58.8124 18.7433 58.6849C18.8001 58.5575 18.8297 58.4195 18.83 58.28V57.5C18.8289 57.3255 18.7822 57.1543 18.6945 57.0034C18.6068 56.8525 18.4811 56.7273 18.33 56.64C18.1272 56.5241 17.9584 56.3567 17.8408 56.1548C17.7232 55.953 17.6608 55.7236 17.66 55.49C17.6626 55.1354 17.8046 54.7961 18.0554 54.5454C18.3061 54.2946 18.6454 54.1526 19 54.15Z" fill="white"/>
<path d="M29.41 7.12C29.2778 7.04902 29.1312 7.00872 28.9813 7.00209C28.8313 6.99545 28.6818 7.02266 28.5438 7.08168C28.4058 7.14071 28.2829 7.23004 28.1841 7.34305C28.0854 7.45607 28.0133 7.58986 27.9733 7.73452C27.9333 7.87918 27.9263 8.03099 27.953 8.1787C27.9796 8.3264 28.0392 8.46621 28.1273 8.58776C28.2153 8.70931 28.3296 8.80948 28.4616 8.88085C28.5937 8.95221 28.7401 8.99293 28.89 9C33.3182 10.223 37.4089 12.4405 40.8505 15.4835C44.2921 18.5266 46.9939 22.3149 48.75 26.56C48.7999 26.6815 48.8732 26.7919 48.9658 26.8851C49.0584 26.9782 49.1684 27.0522 49.2896 27.1028C49.4108 27.1534 49.5408 27.1796 49.6721 27.18C49.8034 27.1804 49.9335 27.1549 50.055 27.105C50.1765 27.0551 50.2869 26.9818 50.3801 26.8892C50.4732 26.7966 50.5472 26.6866 50.5978 26.5654C50.6484 26.4442 50.6746 26.3142 50.675 26.1829C50.6754 26.0516 50.6499 25.9215 50.6 25.8C48.7201 21.2806 45.8346 17.2492 42.1628 14.0123C38.491 10.7754 34.1295 8.41828 29.41 7.12V7.12Z" fill="white"/>
<path d="M57.24 22.79C55.0162 17.2939 51.5405 12.3927 47.0893 8.47622C42.6382 4.55974 37.3344 1.73612 31.6 0.230001C31.3427 0.163697 31.0697 0.202305 30.8409 0.337331C30.6121 0.472357 30.4463 0.692741 30.38 0.950001C30.3137 1.20726 30.3523 1.48032 30.4873 1.70912C30.6224 1.93791 30.8427 2.1037 31.1 2.17C36.5295 3.59667 41.5514 6.2703 45.7663 9.97833C49.9812 13.6864 53.273 18.3266 55.38 23.53C55.4795 23.7767 55.6728 23.9737 55.9176 24.0778C56.1623 24.1819 56.4383 24.1845 56.685 24.085C56.9317 23.9855 57.1287 23.7922 57.2328 23.5474C57.3369 23.3027 57.3395 23.0267 57.24 22.78V22.79Z" fill="white"/>
<path d="M26.88 15.23C26.7546 15.1906 26.6226 15.1763 26.4917 15.1879C26.3608 15.1995 26.2334 15.2368 26.1168 15.2976C26.0003 15.3584 25.8969 15.4416 25.8125 15.5424C25.7281 15.6432 25.6644 15.7596 25.625 15.885C25.5856 16.0104 25.5713 16.1424 25.5829 16.2733C25.5945 16.4042 25.6318 16.5316 25.6926 16.6482C25.7534 16.7647 25.8366 16.8681 25.9374 16.9525C26.0382 17.0369 26.1546 17.1006 26.28 17.14C29.4955 18.1541 32.4602 19.8366 34.9798 22.077C37.4994 24.3174 39.5169 27.0651 40.9 30.14C40.9538 30.2602 41.0308 30.3685 41.1265 30.4589C41.2223 30.5494 41.3349 30.62 41.4579 30.6669C41.5809 30.7138 41.712 30.736 41.8436 30.7323C41.9753 30.7285 42.1048 30.6988 42.225 30.645C42.3452 30.5912 42.4535 30.5142 42.5439 30.4184C42.6344 30.3227 42.705 30.2101 42.7519 30.0871C42.7988 29.9641 42.821 29.833 42.8173 29.7014C42.8135 29.5697 42.7838 29.4402 42.73 29.32C41.2308 25.9867 39.0436 23.0081 36.312 20.5798C33.5803 18.1515 30.366 16.3283 26.88 15.23V15.23Z" fill="white"/>
</svg>
