<svg width="70" height="75" viewBox="0 0 70 75" fill="none" xmlns="http://www.w3.org/2000/svg">
<path d="M42.78 32C42.48 31.88 35.42 29.09 30.96 30.71C28 31.77 25.46 35 24 37.21V34C24 33.7348 23.8946 33.4804 23.7071 33.2929C23.5196 33.1054 23.2652 33 23 33C22.7348 33 22.4804 33.1054 22.2929 33.2929C22.1054 33.4804 22 33.7348 22 34V43.69C20.33 42.33 15.86 39 12 39C7.25001 39 1.57001 44 1.33001 44.26C1.22525 44.3538 1.14146 44.4686 1.08409 44.597C1.02672 44.7254 0.99707 44.8644 0.99707 45.005C0.99707 45.1456 1.02672 45.2846 1.08409 45.413C1.14146 45.5414 1.22525 45.6562 1.33001 45.75C1.57001 46 7.25001 51 12 51C15.86 51 20.33 47.67 22 46.31V53H12C11.4696 53 10.9609 53.2107 10.5858 53.5858C10.2107 53.9609 10 54.4696 10 55V62.92C10.0053 66.1222 11.2797 69.1917 13.544 71.456C15.8083 73.7203 18.8778 74.9947 22.08 75H23.91C27.1139 74.9974 30.186 73.7241 32.4525 71.4595C34.7189 69.195 35.9947 66.1239 36 62.92V55C36 54.4696 35.7893 53.9609 35.4142 53.5858C35.0391 53.2107 34.5304 53 34 53H24V41C26.498 41.9099 29.1232 42.4228 31.78 42.52C32.8951 42.5369 34.0048 42.361 35.06 42C39.52 40.38 43.14 33.7 43.29 33.41C43.3563 33.286 43.3958 33.1494 43.4057 33.0092C43.4157 32.8689 43.396 32.7282 43.3478 32.596C43.2997 32.4639 43.2243 32.3434 43.1264 32.2425C43.0286 32.1415 42.9105 32.0623 42.78 32.01V32ZM34 62.92C33.9947 65.5918 32.931 68.1526 31.0418 70.0418C29.1526 71.931 26.5918 72.9947 23.92 73H22.08C19.4082 72.9947 16.8474 71.931 14.9582 70.0418C13.069 68.1526 12.0053 65.5918 12 62.92V55H34V62.92ZM3.56001 45C5.56001 43.45 9.20001 41 12 41C14.36 41 17.17 42.65 19.09 44H12C11.7348 44 11.4804 44.1054 11.2929 44.2929C11.1054 44.4804 11 44.7348 11 45C11 45.2652 11.1054 45.5196 11.2929 45.7071C11.4804 45.8946 11.7348 46 12 46H19.1C17.1 47.43 14.25 49 12 49C9.00001 49 5.25001 46.33 3.56001 45ZM34.38 40.1C32.16 40.91 28.96 40.32 26.69 39.71L33.35 37.29C33.477 37.2481 33.5942 37.1812 33.6949 37.0931C33.7955 37.0051 33.8775 36.8978 33.936 36.7776C33.9944 36.6573 34.0282 36.5266 34.0352 36.3931C34.0423 36.2595 34.0225 36.126 33.977 36.0002C33.9315 35.8745 33.8613 35.7592 33.7704 35.6611C33.6796 35.5629 33.57 35.484 33.4482 35.429C33.3263 35.374 33.1947 35.3439 33.061 35.3407C32.9274 35.3374 32.7944 35.361 32.67 35.41L26 37.83C27.43 35.83 29.53 33.35 31.64 32.58C34.46 31.58 38.9 32.78 40.94 33.46C39.63 35.59 37 39.14 34.38 40.1V40.1Z" fill="white"/>
<path d="M41.41 7.12C41.1834 7.10932 40.96 7.17598 40.7763 7.30905C40.5926 7.44212 40.4596 7.63369 40.3991 7.8523C40.3386 8.07092 40.3543 8.3036 40.4435 8.51215C40.5327 8.7207 40.6901 8.89273 40.89 9C45.3182 10.223 49.4089 12.4405 52.8505 15.4835C56.2921 18.5266 58.9939 22.3149 60.75 26.56C60.825 26.7426 60.9524 26.8989 61.1161 27.0093C61.2799 27.1196 61.4726 27.179 61.67 27.18C61.8007 27.1784 61.9298 27.1512 62.05 27.1C62.1716 27.0496 62.2821 26.9758 62.3752 26.8826C62.4682 26.7895 62.5419 26.6788 62.5921 26.5571C62.6422 26.4354 62.6679 26.305 62.6675 26.1734C62.6672 26.0417 62.6408 25.9114 62.59 25.79C60.7099 21.2735 57.8253 17.2448 54.1554 14.0098C50.4855 10.7748 46.1267 8.41857 41.41 7.12V7.12Z" fill="white"/>
<path d="M69.24 22.79C67.0169 17.2935 63.5414 12.3919 59.0901 8.47533C54.6389 4.55876 49.3347 1.7354 43.6 0.230001C43.3427 0.163697 43.0697 0.202305 42.8409 0.337331C42.6121 0.472357 42.4463 0.692741 42.38 0.950001C42.3137 1.20726 42.3523 1.48032 42.4873 1.70912C42.6224 1.93791 42.8427 2.1037 43.1 2.17C48.5295 3.59667 53.5514 6.2703 57.7663 9.97833C61.9812 13.6864 65.273 18.3266 67.38 23.53C67.4795 23.7767 67.6728 23.9737 67.9176 24.0778C68.1623 24.1819 68.4383 24.1845 68.685 24.085C68.9316 23.9855 69.1287 23.7922 69.2328 23.5474C69.3369 23.3027 69.3395 23.0267 69.24 22.78V22.79Z" fill="white"/>
<path d="M38.88 15.23C38.6267 15.1504 38.3522 15.1747 38.1168 15.2976C37.8815 15.4204 37.7046 15.6317 37.625 15.885C37.5454 16.1383 37.5697 16.4128 37.6926 16.6482C37.8154 16.8835 38.0267 17.0604 38.28 17.14C41.4955 18.1541 44.4602 19.8366 46.9798 22.077C49.4994 24.3174 51.5169 27.0651 52.9 30.14C52.9538 30.2602 53.0308 30.3685 53.1265 30.4589C53.2223 30.5494 53.3349 30.62 53.4579 30.6669C53.5809 30.7138 53.712 30.736 53.8436 30.7323C53.9752 30.7285 54.1048 30.6988 54.225 30.645C54.3452 30.5912 54.4535 30.5142 54.5439 30.4184C54.6343 30.3227 54.705 30.2101 54.7519 30.0871C54.7988 29.9641 54.821 29.833 54.8172 29.7014C54.8135 29.5697 54.7838 29.4402 54.73 29.32C53.2308 25.9867 51.0436 23.0081 48.312 20.5798C45.5803 18.1515 42.366 16.3283 38.88 15.23V15.23Z" fill="white"/>
</svg>
