<svg xmlns="http://www.w3.org/2000/svg" data-name="Ebene 1" viewBox="0 0 100 125" x="0px" y="0px"><title>Unbenannt-2</title><path d="M48,30.66l-.92,0A17.1,17.1,0,0,0,31.08,46,16.91,16.91,0,0,0,35.34,59,10.17,10.17,0,0,1,38,65.77V68.5a1,1,0,0,0,1,1h.15l8.61-1.29,9.39-1.41a1,1,0,0,0,.85-1v0A10.07,10.07,0,0,1,60.62,59,17,17,0,0,0,48,30.66Zm11.14,27A12.09,12.09,0,0,0,56,64.93l-8.57,1.29L40,67.34V65.77a12.17,12.17,0,0,0-3.17-8.12,14.86,14.86,0,0,1-3.76-11.43A15,15,0,0,1,47.18,32.68l.82,0a15,15,0,0,1,11.14,25Z"/><path d="M56.84,67.67l-18,3a1,1,0,0,0,.16,2h.17l18-3a1,1,0,0,0-.33-2Z"/><path d="M56.84,70.67l-18,3a1,1,0,0,0,.16,2h.17l18-3a1,1,0,0,0-.33-2Z"/><path d="M56,73.66a1,1,0,0,0-1,1L55,78l-5.71,2.14a3.8,3.8,0,0,1-2.68,0L41,77.94v-.28a1,1,0,0,0-2,0v.28a2,2,0,0,0,1.25,1.89L46,82A5.81,5.81,0,0,0,50,82l5.72-2.15A2,2,0,0,0,57,77.94V74.66A1,1,0,0,0,56,73.66Z"/><path d="M58.41,15.12A1,1,0,1,0,57.89,17,30.19,30.19,0,0,1,77.75,34.56a1,1,0,1,0,1.85-.76A32.2,32.2,0,0,0,58.41,15.12Z"/><path d="M86.24,30.79A38.1,38.1,0,0,0,60.6,8.23a1,1,0,0,0-.5,1.94A36.09,36.09,0,0,1,84.38,31.53a1,1,0,0,0,1.86-.75Z"/><path d="M55.88,23.23a1,1,0,1,0-.6,1.91,23.92,23.92,0,0,1,14.62,13,1,1,0,1,0,1.83-.82A25.92,25.92,0,0,0,55.88,23.23Z"/><text x="0" y="115" fill="#000000" font-size="5px" font-weight="bold" font-family="'Helvetica Neue', Helvetica, Arial-Unicode, Arial, Sans-serif">Created by Jessica Gelzinus</text><text x="0" y="120" fill="#000000" font-size="5px" font-weight="bold" font-family="'Helvetica Neue', Helvetica, Arial-Unicode, Arial, Sans-serif">from the Noun Project</text></svg>