<svg xmlns="http://www.w3.org/2000/svg" data-name="Ebene 1" viewBox="0 0 100 125" x="0px" y="0px"><title>Unbenannt-2</title><path d="M50.41,15.12A1,1,0,1,0,49.89,17,30.19,30.19,0,0,1,69.75,34.56a1,1,0,1,0,1.85-.76A32.2,32.2,0,0,0,50.41,15.12Z"/><path d="M78.24,30.79A38.09,38.09,0,0,0,52.6,8.23a1,1,0,0,0-.5,1.94A36.09,36.09,0,0,1,76.38,31.53a1,1,0,0,0,1.86-.75Z"/><path d="M47.88,23.23a1,1,0,1,0-.6,1.91,23.92,23.92,0,0,1,14.62,13,1,1,0,1,0,1.83-.82A25.93,25.93,0,0,0,47.88,23.23Z"/><path d="M52,68.79V42.5a7.5,7.5,0,0,0-15,0V68.79a11.5,11.5,0,1,0,15,0ZM44.5,87a9.49,9.49,0,0,1-5.88-17,1,1,0,0,0,.38-.78V42.5a5.5,5.5,0,0,1,11,0V47H49a1,1,0,0,0,0,2h1v3H49a1,1,0,0,0,0,2h1v3H49a1,1,0,0,0,0,2h1v3H49a1,1,0,0,0,0,2h1v5.26a1,1,0,0,0,.38.78A9.49,9.49,0,0,1,44.5,87Z"/><path d="M47,71.5v-29a2.5,2.5,0,0,0-5,0v29a6.5,6.5,0,1,0,5,0Z"/><text x="0" y="115" fill="#000000" font-size="5px" font-weight="bold" font-family="'Helvetica Neue', Helvetica, Arial-Unicode, Arial, Sans-serif">Created by Jessica Gelzinus</text><text x="0" y="120" fill="#000000" font-size="5px" font-weight="bold" font-family="'Helvetica Neue', Helvetica, Arial-Unicode, Arial, Sans-serif">from the Noun Project</text></svg>